<?xml version="1.0" encoding="utf-8"?>
<!-- Generator: Adobe Illustrator 26.0.2, SVG Export Plug-In . SVG Version: 6.00 Build 0)  -->
<svg version="1.1" xmlns="http://www.w3.org/2000/svg" xmlns:xlink="http://www.w3.org/1999/xlink" x="0px" y="0px"
	 viewBox="0 0 3002.04 3006.72" style="enable-background:new 0 0 3002.04 3006.72;" xml:space="preserve">
<style type="text/css">
	.st0{fill:#F4F7FA;}
	.st1{fill:url(#SVGID_1_);}
	.st2{opacity:0.3;}
	.st3{clip-path:url(#SVGID_00000160178583299249428340000013345885980252732332_);}
	.st4{fill:#FFFFFF;}
	.st5{fill:url(#SVGID_00000011712125354035969260000007406410320665455011_);}
	.st6{clip-path:url(#SVGID_00000034063988088357886900000001169467064840300202_);}
	.st7{fill:url(#SVGID_00000007387548984272481220000011012305014733437596_);}
	.st8{fill:url(#SVGID_00000036950198899338685380000007746571727158846087_);}
	.st9{fill:url(#SVGID_00000183241470341069180520000010754998704805315998_);}
	.st10{fill:url(#SVGID_00000183213751980934524390000006543243666579171458_);}
	.st11{fill:url(#SVGID_00000013161066619114694120000007976539799062431142_);}
	.st12{fill:url(#SVGID_00000085936326572623706160000008863479768389424045_);}
	.st13{opacity:0.3;fill:url(#SVGID_00000152956610212416174050000011585112430170393023_);}
	.st14{opacity:0.48;fill:#FFFFFF;}
	.st15{fill:url(#SVGID_00000027595393540618252150000009790080275163874495_);}
	.st16{fill:url(#SVGID_00000114753258798750826980000000932443139359032724_);}
	.st17{fill:url(#SVGID_00000083804164236243983730000008807332771360986802_);}
	.st18{fill:url(#SVGID_00000080165832289938908110000010831366689832237222_);}
	.st19{opacity:0.48;}
	.st20{fill:url(#SVGID_00000078042959151869347250000011593314862134481564_);}
	.st21{fill:url(#SVGID_00000010291504016593949940000013665099814124551826_);}
	.st22{fill:url(#SVGID_00000111183642202755675190000008482765849806605478_);}
	.st23{fill:url(#SVGID_00000096739252308069901080000003251629541306829453_);}
	.st24{fill:url(#SVGID_00000154411491413303290980000013561498442205462420_);}
	.st25{fill:url(#SVGID_00000060024640569298824570000017349867684261754045_);}
	.st26{fill:url(#SVGID_00000087385312172123755990000002714621305296057517_);}
	.st27{fill:url(#SVGID_00000114756687946446602520000005166196524349508774_);}
	.st28{fill:url(#SVGID_00000161633274934605637470000016485764447249441419_);}
	.st29{fill:url(#SVGID_00000086661473410073263000000001555194214872225208_);}
	.st30{fill:url(#SVGID_00000039836044916777582510000008487990625896057732_);}
	.st31{fill:url(#SVGID_00000102502916955985660400000010630832631362285456_);}
	.st32{opacity:0.3;fill:url(#SVGID_00000024715471008797182240000002599329103570202547_);}
	.st33{fill:url(#SVGID_00000134936774080353175690000006939727546210324135_);}
	.st34{fill:url(#SVGID_00000010289367107927238590000009000991850212965250_);}
	.st35{fill:url(#SVGID_00000005982310327499519610000012409797024003450760_);}
	.st36{fill:url(#SVGID_00000137810506092751019560000013814250222549215922_);}
	.st37{fill:url(#SVGID_00000160887354296377787210000017648871331091226003_);}
	.st38{fill:url(#SVGID_00000008114683320238010560000017112073822160941754_);}
	.st39{opacity:0.3;fill:url(#SVGID_00000091705293847086186640000009466289397355915148_);}
	.st40{fill:url(#SVGID_00000127008127007855333320000007566885367107880833_);}
	.st41{fill:url(#SVGID_00000134934951295400140470000006332134911554138509_);}
	.st42{fill:url(#SVGID_00000093886906776687750220000005593984003576471444_);}
	.st43{opacity:0.28;fill:#FFFFFF;}
	.st44{fill:url(#SVGID_00000172431263023867831230000002616954730643533733_);}
	.st45{fill:url(#SVGID_00000058590346671847066840000018255973979677437619_);}
	.st46{fill:url(#SVGID_00000044153743813788130150000010483738518291306153_);}
	.st47{fill:url(#SVGID_00000168833550003266578230000009820515675683591591_);}
	.st48{fill:url(#SVGID_00000100374094996030451510000004160900316158251702_);}
	.st49{fill:url(#SVGID_00000013897382587453299410000014717349267123991477_);}
	.st50{fill:url(#SVGID_00000049190133249057822900000006655863485611524231_);}
	.st51{fill:url(#SVGID_00000090993551004531755660000005601862317241888927_);}
	.st52{fill:url(#SVGID_00000010311526224126287690000002495352721611471488_);}
	.st53{fill:url(#SVGID_00000096738977768815322750000004439622913355156386_);}
	.st54{fill:url(#SVGID_00000159447165069492357830000010172344839559061687_);}
	.st55{fill:url(#SVGID_00000013160448074917238680000017179518983704921007_);}
	.st56{fill:url(#SVGID_00000014615729544935369540000012738917429406311845_);}
	.st57{fill:url(#SVGID_00000089569863148186918410000010783411054327500420_);}
	.st58{fill:url(#SVGID_00000091716956653350777870000012141525433784566701_);}
	.st59{fill:url(#SVGID_00000111884561313708261060000008315689008104708031_);}
	.st60{fill:url(#SVGID_00000145027881061489620550000007195611471669551536_);}
	.st61{fill:url(#SVGID_00000157274299860356764380000007282200686712533419_);}
</style>
<g id="Background">
</g>
<g id="Illustration">
	<g id="Cross-device_marketing">
		<circle class="st0" cx="1480.05" cy="1520.92" r="1400"/>
		<g>
			
				<linearGradient id="SVGID_1_" gradientUnits="userSpaceOnUse" x1="4525.3857" y1="814.7807" x2="3895.2078" y2="2605.8149" gradientTransform="matrix(-0.9747 0.2237 0.2237 0.9747 5010.5405 -1272.4984)">
				<stop  offset="3.597120e-03" style="stop-color:#E38DDD"/>
				<stop  offset="1" style="stop-color:#9571F6"/>
			</linearGradient>
			<path class="st1" d="M1740.07,2204.44l-308.54,70.81c0,0-94.4-144.95-44.43-274c101.97-263.3-135.76-334.23-230.88-378.84
				c-143.46-67.27-225.27-177.94-97.33-291.27c144.76-128.23-56.23-335-303.57-410.24c-242.04-73.63-250.81-546.37,287.68-435.1
				c321.59,66.45,346.81,385.45,397.85,543.51s293.97,116.36,257.09,332.22c-31.5,184.39-136.57,337.68-8.34,430.05
				S1858.13,2011.26,1740.07,2204.44z"/>
			<g class="st2">
				<defs>
					<path id="SVGID_00000069375353875333809620000004183050004469219471_" class="st2" d="M1740.07,2204.44l-308.54,70.81
						c0,0-94.4-144.95-44.43-274c101.97-263.3-135.76-334.23-230.88-378.84c-143.46-67.27-240.54-189.11-75.4-289.75
						s-78.15-336.53-325.49-411.77c-242.04-73.63-250.81-546.37,287.68-435.1c321.59,66.45,346.81,385.45,397.85,543.51
						s293.97,116.36,257.09,332.22c-31.5,184.39-136.57,337.68-8.34,430.05S1858.13,2011.26,1740.07,2204.44z"/>
				</defs>
				<clipPath id="SVGID_00000159442917936256562050000000896510431351951537_">
					<use xlink:href="#SVGID_00000069375353875333809620000004183050004469219471_"  style="overflow:visible;"/>
				</clipPath>
				<g style="clip-path:url(#SVGID_00000159442917936256562050000000896510431351951537_);">
					<path class="st4" d="M1613.1,2263.73l-6.68,0.3c-0.18-4.14-20.03-418.07-163.43-822.5
						c-132.11-372.58-399.18-813.09-921.26-795.83l-0.22-6.68c232.4-7.69,434.46,73.13,600.56,240.19
						c132.68,133.46,242.79,321.94,327.27,560.21C1593.05,1844.77,1612.92,2259.58,1613.1,2263.73z"/>
					<path class="st4" d="M1188.47,952.02l-6.65,0.68c-22.59-221.28-174.68-508.06-176.21-510.93l5.89-3.15
						C1013.04,441.5,1165.75,729.45,1188.47,952.02z"/>
					<path class="st4" d="M1074.74,843.74c-250.62-86.29-440.44,26.27-442.32,27.42l-3.47-5.71
						c1.91-1.17,194.28-115.38,447.97-28.03L1074.74,843.74z"/>
					<path class="st4" d="M1522.34,1711.03c-143.3-290.38-578.26-269.85-582.49-269.29l-1.3-6.55
						c4.09-0.94,445.2-20.08,589.78,272.88L1522.34,1711.03z"/>
					<path class="st4" d="M1494.49,1580.44l-6.68,0.14c-4.24-206.59,178.51-391.35,180.36-393.19l4.72,4.73
						C1671.05,1193.94,1490.3,1376.74,1494.49,1580.44z"/>
					<path class="st4" d="M1601.87,2198.95c-36.82-117.37-229.2-172.85-231.14-173.4l1.81-6.43c8.06,2.27,197.79,57,235.7,177.83
						L1601.87,2198.95z"/>
					<path class="st4" d="M1598.49,2100.87l-6.67,0.38c-5.49-97.11,111.87-233.62,150.44-278.48c5.45-6.34,10.15-11.81,10.8-12.95
						l5.86,3.21c-0.89,1.62-4.01,5.27-11.59,14.1C1709.19,1871.47,1593.15,2006.45,1598.49,2100.87z"/>
				</g>
			</g>
		</g>
		<g>
			
				<linearGradient id="SVGID_00000077286367686449302280000011090535842628851594_" gradientUnits="userSpaceOnUse" x1="2550.9272" y1="593.5303" x2="3344.3887" y2="1899.7721" gradientTransform="matrix(0.9513 -0.3082 0.3082 0.9513 -2063.666 1037.8472)">
				<stop  offset="0" style="stop-color:#FF9085"/>
				<stop  offset="1" style="stop-color:#FB6FBB"/>
			</linearGradient>
			<path style="fill:url(#SVGID_00000077286367686449302280000011090535842628851594_);" d="M1390.18,1790.01
				c1.48,0.15,2.96,0.3,4.44,0.44c87.6,8.39,184.82,2.08,291.32-27.66c20.35-7.26,40.7-14.52,61.05-21.79
				c1.64-54.35-6.54-106.33-75.22-105.31c-106.66,1.58-163.09-169.1-155.49-238.17c9.4-85.49,27.2-285-137.74-285.15
				c-137.31-0.12-225.94,27.86-285.37-130.13c-59.44-158-178.81-230.62-321.58-175.08c-150.25,58.44-340.45-106.1-444.6,1.84
				c-181.47,188.09,128.66,479.77,427.37,498.41s176.2,162.79,210.5,296.61c46.83,182.69,277.53,67.75,363.92,118.08
				C1358.04,1739.14,1377.37,1763.63,1390.18,1790.01z"/>
			<g class="st2">
				<defs>
					<path id="SVGID_00000100340550582826947320000001247060430840663204_" class="st2" d="M1414.32,1891.21l333.46-108.04
						c4.13-53.5,0.72-148.62-76-147.48c-106.66,1.58-163.09-169.1-155.49-238.17c9.4-85.49,27.2-285-137.74-285.15
						c-137.31-0.12-225.94,27.86-285.38-130.13c-59.44-158-178.81-230.62-321.58-175.08c-150.25,58.44-340.45-106.11-444.6,1.84
						c-181.47,188.09,128.66,479.77,427.37,498.41c298.71,18.63,176.2,162.79,210.5,296.61c46.83,182.69,277.53,67.75,363.91,118.08
						C1396.5,1761.55,1411.24,1840.82,1414.32,1891.21z"/>
				</defs>
				<clipPath id="SVGID_00000160871112079269767760000002770634437122587303_">
					<use xlink:href="#SVGID_00000100340550582826947320000001247060430840663204_"  style="overflow:visible;"/>
				</clipPath>
				<g style="clip-path:url(#SVGID_00000160871112079269767760000002770634437122587303_);">
					<path class="st4" d="M1554.34,1787.89l6.64-3.69c-269.99-485.27-774.17-837.13-1315.78-918.27l-1.12,7.51
						C783.4,954.24,1285.47,1304.63,1554.34,1787.89z"/>
					<path class="st4" d="M1384.47,1535.92l7.24-2.31c-66.36-207.91,59.91-426.77,61.19-428.96l-6.55-3.84
						C1445.05,1103.03,1317.07,1324.74,1384.47,1535.92z"/>
					<path class="st4" d="M1502.24,1699.97l5.27-5.47c-159.29-153.56-550.65-57.59-554.58-56.6l1.85,7.37
						C958.66,1644.29,1345.98,1549.33,1502.24,1699.97z"/>
					<path class="st4" d="M983.74,1167.59l5.72-5c-115.5-132.16-90.72-400.17-90.45-402.86l-7.56-0.74
						C891.19,761.71,866.11,1032.98,983.74,1167.59z"/>
					<path class="st4" d="M675.01,997.11l1.82-7.38c-194.16-47.96-427.98,87.39-430.32,88.77l3.84,6.55
						C252.66,1083.69,483.87,949.89,675.01,997.11z"/>
				</g>
			</g>
		</g>
		<g>
			<g>
				
					<linearGradient id="SVGID_00000083054301917637344280000012344204070063652524_" gradientUnits="userSpaceOnUse" x1="1326.2338" y1="2521.4485" x2="1152.6888" y2="2594.3374">
					<stop  offset="0" style="stop-color:#40447E"/>
					<stop  offset="0.9964" style="stop-color:#3C3B6B"/>
				</linearGradient>
				<path style="fill:url(#SVGID_00000083054301917637344280000012344204070063652524_);" d="M2753.18,2426.48l-2470.47-21.52v63.66
					c0,17.28,10.78,31.97,25.37,34.59l698.57,125.36c8.29,1.49,16.7,1.88,25.06,1.18l1694.61-142.93
					c15.13-1.28,26.85-16.01,26.85-33.77V2426.48z"/>
				
					<linearGradient id="SVGID_00000171710646725064984080000005222106077891270297_" gradientUnits="userSpaceOnUse" x1="1094.4983" y1="1756.5778" x2="906.1573" y2="1835.681">
					<stop  offset="0" style="stop-color:#40447E"/>
					<stop  offset="0.9964" style="stop-color:#3C3B6B"/>
				</linearGradient>
				<path style="fill:url(#SVGID_00000171710646725064984080000005222106077891270297_);" d="M1957.91,2323.28l-1648,116.46
					c-29.49,2.08-53.47-20.06-53.47-49.47V1212.16c0-29.41,23.98-53.25,53.47-53.25h1648c24.3,0,43.94,21.55,43.94,48.13v1065
					C2001.85,2298.63,1982.2,2321.57,1957.91,2323.28z"/>
				
					<linearGradient id="SVGID_00000176001088770585341010000013451415034191050123_" gradientUnits="userSpaceOnUse" x1="282.718" y1="1799.3969" x2="2028.1257" y2="1799.3969">
					<stop  offset="0" style="stop-color:#40447E"/>
					<stop  offset="0.9964" style="stop-color:#3C3B6B"/>
				</linearGradient>
				<path style="fill:url(#SVGID_00000176001088770585341010000013451415034191050123_);" d="M1984.19,2323.28l-1648,116.46
					c-29.49,2.08-53.47-20.06-53.47-49.47V1212.16c0-29.41,23.98-53.25,53.47-53.25h1648c24.3,0,43.94,21.55,43.94,48.13v1065
					C2028.13,2298.63,2008.48,2321.57,1984.19,2323.28z"/>
				
					<linearGradient id="SVGID_00000092423518167758847190000018430399786865393548_" gradientUnits="userSpaceOnUse" x1="1742.4995" y1="930.3103" x2="324.0087" y2="2912.5581">
					<stop  offset="0" style="stop-color:#FFC444"/>
					<stop  offset="0.9964" style="stop-color:#F36F56"/>
				</linearGradient>
				<path style="fill:url(#SVGID_00000092423518167758847190000018430399786865393548_);" d="M1932.85,2248.2L397.91,2349.36
					c-24,1.58-43.5-16.59-43.5-40.6V1277.31c0-24.01,19.5-43.55,43.5-43.65l1534.94-6.35c20.04-0.08,36.25,17.58,36.25,39.44v939.47
					C1969.1,2228.08,1952.89,2246.88,1932.85,2248.2z"/>
				
					<linearGradient id="SVGID_00000036937116083108144490000002996745384877730702_" gradientUnits="userSpaceOnUse" x1="282.718" y1="2444.8418" x2="2753.1843" y2="2444.8418">
					<stop  offset="0" style="stop-color:#40447E"/>
					<stop  offset="0.9964" style="stop-color:#3C3B6B"/>
				</linearGradient>
				<path style="fill:url(#SVGID_00000036937116083108144490000002996745384877730702_);" d="M1943.07,2318L282.72,2440.59
					l723.94,129.91c8.29,1.49,16.7,1.88,25.06,1.18l1721.46-145.2l-783.71-107.65C1960.71,2317.63,1951.87,2317.35,1943.07,2318z"/>
				<g>
					<ellipse class="st4" cx="1257.66" cy="1775.95" rx="265.89" ry="269.29"/>
					
						<linearGradient id="SVGID_00000087377392868798423190000018430797292334444419_" gradientUnits="userSpaceOnUse" x1="1115.3502" y1="1769.6044" x2="1399.9645" y2="1769.6044">
						<stop  offset="0" style="stop-color:#FF9085"/>
						<stop  offset="1" style="stop-color:#FB6FBB"/>
					</linearGradient>
					<path style="fill:url(#SVGID_00000087377392868798423190000018430797292334444419_);" d="M1248.29,1921.05
						c-11.53,0-22.25-6.11-28.21-16.17l-100.03-168.63c-9.36-15.78-4.32-36.26,11.26-45.74c15.58-9.48,35.8-4.38,45.16,11.41
						l69.44,117.06l91.79-182.6c8.25-16.41,28.07-22.93,44.26-14.58c16.2,8.35,22.65,28.42,14.4,44.83l-118.75,236.22
						c-5.43,10.8-16.22,17.77-28.18,18.19C1249.06,1921.04,1248.68,1921.05,1248.29,1921.05z"/>
				</g>
				
					<linearGradient id="SVGID_00000146488461163371096580000007072866111109790336_" gradientUnits="userSpaceOnUse" x1="524.9887" y1="2424.6003" x2="2335.0837" y2="2424.6003">
					<stop  offset="0" style="stop-color:#40447E"/>
					<stop  offset="0.9964" style="stop-color:#3C3B6B"/>
				</linearGradient>
				<polygon style="opacity:0.3;fill:url(#SVGID_00000146488461163371096580000007072866111109790336_);" points="524.99,2443.67 
					1907.28,2340.09 2335.08,2398.38 964.7,2509.11 				"/>
				<path class="st14" d="M1587.13,2000.17c-127.05-68.36-226.94,18.26-323.35-67.2c-58.45-51.81-29.75-90.45-101.67-167.87
					c-79.66-85.76-131.52-56.93-211.57-134.11c-101.22-97.59-50.6-173.52-137.79-243.59c-105.77-85-219.84-6.33-320.53-87.85
					c-43.43-35.16-67.26-86.28-79.7-140.64H314c-17.26,0-31.28,13.99-31.28,31.25v1221.23c0,17.26,14.02,30.26,31.28,29.03
					l1679.58-119.22c8.24-0.58,15.55-5.4,20.24-12.37c-122.95-4.48-198.48-45.7-246.77-88.31
					C1672.6,2137.17,1688.99,2054.97,1587.13,2000.17z"/>
			</g>
			<g>
				<g>
					<g>
						
							<linearGradient id="SVGID_00000153701722967664666090000006910911101313953964_" gradientUnits="userSpaceOnUse" x1="2574.5342" y1="2605.1807" x2="2095.6814" y2="2196.697">
							<stop  offset="0" style="stop-color:#444B8C"/>
							<stop  offset="0.9964" style="stop-color:#26264F"/>
						</linearGradient>
						<path style="fill:url(#SVGID_00000153701722967664666090000006910911101313953964_);" d="M2511.37,1773.67v919.8
							c0,13.76-15.05,17.79-32.12,19.45l-590.52,66.04l-9.03,0.88c-18.53,1.8-33.72-8.49-33.72-22.86v-961.16
							c0-14.37,15.19-26.61,33.72-27.2l12.25-0.39l592.6,1.94C2501.63,1769.62,2511.37,1759.91,2511.37,1773.67z"/>
						
							<linearGradient id="SVGID_00000010304192431919701800000016773404830559730604_" gradientUnits="userSpaceOnUse" x1="-1686.8558" y1="3589.9216" x2="13.8886" y2="3653.188" gradientTransform="matrix(0 -1 1 0 -1410.9893 1044.2057)">
							<stop  offset="0" style="stop-color:#444B8C"/>
							<stop  offset="0.9964" style="stop-color:#26264F"/>
						</linearGradient>
						<path style="fill:url(#SVGID_00000010304192431919701800000016773404830559730604_);" d="M2529.58,1772.62v919.55
							c0,13.75-13.93,26.36-31,28.01l-600.33,58.31c-18.52,1.8-33.7-8.48-33.7-22.85v-960.89c0-14.37,15.18-26.61,33.7-27.19
							l600.33-18.96C2515.65,1748.06,2529.58,1758.87,2529.58,1772.62z"/>
						
							<linearGradient id="SVGID_00000020388728420038314900000015290884845157823623_" gradientUnits="userSpaceOnUse" x1="2350.658" y1="2056.5667" x2="1742.24" y2="2874.6262">
							<stop  offset="0" style="stop-color:#FFC444"/>
							<stop  offset="0.9964" style="stop-color:#F36F56"/>
						</linearGradient>
						<path style="fill:url(#SVGID_00000020388728420038314900000015290884845157823623_);" d="M2510.34,1824.29v852.1
							c0,12.84-13.03,24.6-28.98,26.13l-564.49,54.09c-17.23,1.65-31.35-7.95-31.35-21.33v-888.05c0-13.38,14.12-24.83,31.35-25.44
							l564.49-19.84C2497.31,1801.4,2510.34,1811.45,2510.34,1824.29z"/>
					</g>
				</g>
				<g>
					<path class="st4" d="M2420.4,2198.45c0,115.11-92.76,214.64-207.54,222.31c-115.17,7.7-208.82-79.94-208.82-195.76
						c0-115.83,93.65-215.4,208.82-222.39C2327.64,1995.65,2420.4,2083.34,2420.4,2198.45z"/>
					
						<linearGradient id="SVGID_00000180332846794953849580000006345395631234327487_" gradientUnits="userSpaceOnUse" x1="2101.2568" y1="2204.3521" x2="2324.0972" y2="2204.3521">
						<stop  offset="0" style="stop-color:#FF9085"/>
						<stop  offset="1" style="stop-color:#FB6FBB"/>
					</linearGradient>
					<path style="fill:url(#SVGID_00000180332846794953849580000006345395631234327487_);" d="M2205.53,2324.82
						c-9.03,0.59-17.43-3.61-22.1-11.11l-78.48-126.02c-7.35-11.81-3.39-27.98,8.85-36.13c12.23-8.14,28.1-5.16,35.44,6.64
						l54.42,87.48l71.81-146.26c6.44-13.13,21.93-19.15,34.58-13.45c12.64,5.69,17.68,20.94,11.24,34.05l-92.8,189.16
						c-4.25,8.66-12.7,14.62-22.06,15.56C2206.13,2324.78,2205.83,2324.8,2205.53,2324.82z"/>
				</g>
				<g class="st19">
					<path class="st4" d="M2335.52,2301.77c-54.62-109.6-182.26-83.44-230.21-202.97c-28.6-71.31,7-105.12-14.44-192.11
						c-14.51-58.87-46.2-105.78-82.1-142.62l-110.51,3.49c-18.52,0.59-33.7,12.82-33.7,27.19v960.89c0,14.37,15.18,24.65,33.7,22.85
						l483.11-46.92c-35.77-49.71-51.08-96.47-56.6-137.03C2307.64,2468.72,2384.03,2399.12,2335.52,2301.77z"/>
				</g>
			</g>
			<g>
				<g>
					<g>
						
							<linearGradient id="SVGID_00000077306861270548822200000016389256562003991183_" gradientUnits="userSpaceOnUse" x1="2905.947" y1="2706.021" x2="2607.7129" y2="2451.6135">
							<stop  offset="0" style="stop-color:#444B8C"/>
							<stop  offset="0.9964" style="stop-color:#26264F"/>
						</linearGradient>
						<path style="fill:url(#SVGID_00000077306861270548822200000016389256562003991183_);" d="M2838.35,2158.31v634.78
							c0,9.49-8.11,12.12-17.31,13.08l-316.9,39.24l-4.82,0.51c-9.9,1.04-18.02-6.19-18.02-16.06v-660.32
							c0-9.87,8.12-18.19,18.02-18.49l6.55-0.19l318.04,4.88C2833.1,2155.47,2838.35,2148.82,2838.35,2158.31z"/>
						
							<linearGradient id="SVGID_00000012456243913557383230000014527039060911592615_" gradientUnits="userSpaceOnUse" x1="-1767.0375" y1="4068.3911" x2="-609.5184" y2="4111.4497" gradientTransform="matrix(0 -1 1 0 -1410.9893 1044.2057)">
							<stop  offset="0" style="stop-color:#444B8C"/>
							<stop  offset="0.9964" style="stop-color:#26264F"/>
						</linearGradient>
						<path style="fill:url(#SVGID_00000012456243913557383230000014527039060911592615_);" d="M2848.17,2157.7v634.69
							c0,9.49-7.51,18.04-16.71,19.01l-322.23,33.81c-9.9,1.04-18.01-6.19-18.01-16.06v-660.22c0-9.87,8.11-18.19,18.01-18.48
							l322.23-9.5C2840.66,2140.67,2848.17,2148.21,2848.17,2157.7z"/>
						
							<linearGradient id="SVGID_00000088104547687755819190000016580286202027411640_" gradientUnits="userSpaceOnUse" x1="2767.436" y1="2362.4443" x2="2380.4668" y2="2882.7507">
							<stop  offset="0" style="stop-color:#FFC444"/>
							<stop  offset="0.9964" style="stop-color:#F36F56"/>
						</linearGradient>
						<path style="fill:url(#SVGID_00000088104547687755819190000016580286202027411640_);" d="M2837.8,2193.25v588.05
							c0,8.86-7.02,16.84-15.62,17.73l-302.99,31.33c-9.21,0.95-16.76-5.79-16.76-14.99v-610.26c0-9.2,7.55-16.98,16.76-17.29
							l302.99-10.17C2830.78,2177.37,2837.8,2184.38,2837.8,2193.25z"/>
					</g>
				</g>
				<g>
					<path class="st4" d="M2802.05,2454.58c0,68.54-54.95,127.88-122.85,132.55c-68.04,4.67-123.3-47.3-123.3-116.09
						s55.26-128.16,123.3-132.58C2747.11,2334.04,2802.05,2386.03,2802.05,2454.58z"/>
					
						<linearGradient id="SVGID_00000158732710021670464540000011581467707664922248_" gradientUnits="userSpaceOnUse" x1="2613.2642" y1="2458.3438" x2="2745.0095" y2="2458.3438">
						<stop  offset="0" style="stop-color:#FF9085"/>
						<stop  offset="1" style="stop-color:#FB6FBB"/>
					</linearGradient>
					<path style="fill:url(#SVGID_00000158732710021670464540000011581467707664922248_);" d="M2674.87,2530.08
						c-5.34,0.36-10.3-2.12-13.06-6.58l-46.36-74.8c-4.34-7.01-2-16.63,5.22-21.49c7.22-4.86,16.6-3.12,20.93,3.88l32.16,51.92
						l42.47-87.12c3.81-7.82,12.98-11.44,20.46-8.08c7.48,3.36,10.46,12.42,6.65,20.24l-54.91,112.68
						c-2.51,5.16-7.51,8.71-13.04,9.28C2675.22,2530.05,2675.05,2530.07,2674.87,2530.08z"/>
				</g>
				<g class="st19">
					<path class="st4" d="M2743.42,2537.83c-29.41-73.92-108.66-56.46-133.35-131.17c-20.15-60.98,24.68-96.72,7.13-167.33
						c-9.85-39.62-34.08-69.05-58.85-90.34l-49.11,1.45c-9.9,0.29-18.01,8.61-18.01,18.48v660.22c0,9.87,8.11,17.1,18.01,16.06
						l247.04-25.92c-19.83-31.25-27.79-59.81-30.61-83.53C2715.43,2649.44,2770.36,2605.56,2743.42,2537.83z"/>
				</g>
			</g>
		</g>
		<g>
			<g>
				<g>
					
						<linearGradient id="SVGID_00000155857382357566812990000007142278007897527700_" gradientUnits="userSpaceOnUse" x1="-1338.9847" y1="1608.7921" x2="-546.8877" y2="2146.8198" gradientTransform="matrix(-1 0 0 1 -481.7885 0)">
						<stop  offset="0" style="stop-color:#311944"/>
						<stop  offset="1" style="stop-color:#6B3976"/>
					</linearGradient>
					<path style="fill:url(#SVGID_00000155857382357566812990000007142278007897527700_);" d="M813.68,1894.98
						c14.9-9.66,1.32-37.77,0.52-98.13c-0.98-73.97,18.66-87.76,2.88-116.78c-19.3-35.49-67.87-50.18-100.05-50.87
						c-7.1-0.15-8.76-4.03-68.22,11.37c-107.13,27.75-133.95-2-181.93,27.71c-46.35,28.71-26.05,60.14-71.06,93.81
						c-72.96,54.57-149.68-4.43-201.82,41.22c-49.32,43.17-50.46,153.17,1.42,213.2c58.81,68.05,164.86,47.6,235.93,34.11
						c14.95-2.84,90.49-18.7,169.13-76.75c43.51-32.11,73.38-66.41,92.38-91.67c4.46-5.02,11.42-11.1,20.61-12.08
						c11.03-1.18,19.89,5.57,24.16,8.53C760.06,1894.16,799.04,1904.47,813.68,1894.98z"/>
					
						<linearGradient id="SVGID_00000062158280390696445160000008491725292346919606_" gradientUnits="userSpaceOnUse" x1="689.2515" y1="3134.8918" x2="1031.616" y2="1571.642">
						<stop  offset="3.597120e-03" style="stop-color:#E38DDD"/>
						<stop  offset="1" style="stop-color:#9571F6"/>
					</linearGradient>
					<path style="fill:url(#SVGID_00000062158280390696445160000008491725292346919606_);" d="M753.8,1854.44
						c19.16-17.46,87.53,16.19,132.84,60.84c53.23,52.46,49.14,94.99,95.6,160.16c23.09,32.4,62.69,76.01,132.85,114.22
						c-4.97,12.41-9.93,24.83-14.9,37.25c-33.92,2.04-100.52,0.84-162.64-39.73c-43.16-28.18-65.36-65.52-108.01-139.05
						C786.73,1974.32,729.86,1876.26,753.8,1854.44z"/>
					
						<linearGradient id="SVGID_00000023974443001364135120000000288480567893195455_" gradientUnits="userSpaceOnUse" x1="-1689.2926" y1="2852.2061" x2="-1582.6161" y2="2852.2061" gradientTransform="matrix(-1 0 0 1 -481.7885 0)">
						<stop  offset="0" style="stop-color:#311944"/>
						<stop  offset="1" style="stop-color:#6B3976"/>
					</linearGradient>
					<path style="fill:url(#SVGID_00000023974443001364135120000000288480567893195455_);" d="M1185.64,2852.17l-53.37-32.07h-24.09
						c0,0-8.21,30.54-7.27,32.07c10.73,17.59,60.7,30.97,91.88,32.07c5.18,0.18,12.4,0.21,14.27-3.54
						C1210.21,2874.35,1196.09,2861.02,1185.64,2852.17z"/>
					
						<linearGradient id="SVGID_00000074409509236311929860000004617299402791527066_" gradientUnits="userSpaceOnUse" x1="-1638.9833" y1="2894.2466" x2="-1479.8311" y2="2416.7886" gradientTransform="matrix(-1 0 0 1 -481.7885 0)">
						<stop  offset="0" style="stop-color:#FFC444"/>
						<stop  offset="0.9964" style="stop-color:#F36F56"/>
					</linearGradient>
					<path style="fill:url(#SVGID_00000074409509236311929860000004617299402791527066_);" d="M1131.32,2785.11
						c-3.43,19.85,0.91,30.21,5.59,36c3.29,4.08,6.22,5.24,25.76,22.13c6.46,5.59,9.75,8.58,9,10.15
						c-0.85,1.79-6.56,0.82-18.87-2.14c-26.84-6.45-40.32-9.81-43.62-16.27c-2.98-5.85-0.35-8.49-0.52-24.42
						c-0.11-10.49-2.25-18.94-3.92-24.22C1113.6,2785.93,1122.46,2785.52,1131.32,2785.11z"/>
					
						<linearGradient id="SVGID_00000013880639453143277570000003679054073233875591_" gradientUnits="userSpaceOnUse" x1="-1672.3125" y1="2656.333" x2="-1607.0724" y2="2656.333" gradientTransform="matrix(-1 0 0 1 -481.7885 0)">
						<stop  offset="0" style="stop-color:#311944"/>
						<stop  offset="1" style="stop-color:#6B3976"/>
					</linearGradient>
					<path style="fill:url(#SVGID_00000013880639453143277570000003679054073233875591_);" d="M1169.9,2627.76
						c0,0,24.11,28.77,20.19,60.32c-3.92,31.54-46.15-14.57-52.04-30.16c-5.89-15.58-12.77-37.79-12.77-37.79
						S1154.9,2601.7,1169.9,2627.76z"/>
					
						<linearGradient id="SVGID_00000174591786237000352880000011754146493444704950_" gradientUnits="userSpaceOnUse" x1="-1710.1238" y1="2835.4707" x2="-1603.5935" y2="2515.8789" gradientTransform="matrix(-1 0 0 1 -481.7885 0)">
						<stop  offset="0" style="stop-color:#FFC444"/>
						<stop  offset="0.9964" style="stop-color:#F36F56"/>
					</linearGradient>
					<path style="fill:url(#SVGID_00000174591786237000352880000011754146493444704950_);" d="M1160.7,2582.74
						c0,0-6.54,33.52,5.94,51.21c6.21,8.81,14.6,16.29,12.13,23.46c-1.65,4.81-7.92,8.26-13.24,7.72
						c-10.17-1.04-15.81-16.64-19.79-27.64c-5.87-16.25-9.15-51.01-9.15-51.01L1160.7,2582.74z"/>
					
						<linearGradient id="SVGID_00000145772757554117023950000006105360362460301472_" gradientUnits="userSpaceOnUse" x1="-1578.8588" y1="2297.0356" x2="-1499.4009" y2="2756.4019" gradientTransform="matrix(-1 0 0 1 -481.7885 0)">
						<stop  offset="0" style="stop-color:#AB316D"/>
						<stop  offset="1" style="stop-color:#792D3D"/>
					</linearGradient>
					<path style="fill:url(#SVGID_00000145772757554117023950000006105360362460301472_);" d="M1141.48,2610.99
						c7.42-2.7,14.83-5.4,22.25-8.1c11.57-26.42,25.69-69.83,20.97-122.58c-12.13-135.67-137.61-207.56-151.55-215.25
						c-34.19,17.15-68.82,41.35-70.07,71.86c-1.57,38.29,50.59,58.54,99.63,114.53C1092.16,2485.05,1123.61,2535.14,1141.48,2610.99
						z"/>
					
						<linearGradient id="SVGID_00000087398864049694086900000008389008548283500952_" gradientUnits="userSpaceOnUse" x1="-1466.6455" y1="2841.4519" x2="-1353.6656" y2="2483.8894" gradientTransform="matrix(-1 0 0 1 -481.7885 0)">
						<stop  offset="0" style="stop-color:#AB316D"/>
						<stop  offset="1" style="stop-color:#792D3D"/>
					</linearGradient>
					<path style="fill:url(#SVGID_00000087398864049694086900000008389008548283500952_);" d="M1133.49,2800.62
						c24.5-95.72,18.24-173.82,11.17-218.82c-10.68-68.01-32.41-206.35-124.78-257.93c-20.17-11.26-49-21.35-84.14-52.67
						c-29.35-26.15-48-53.66-59.25-73.04c-123.52-36.23-237.45-21.55-287.73,44.7c-5.81,7.66-20.35,24.26-23.17,48.74
						c-6.35,55.24,47.93,121.74,108.83,135.63c77.4,17.65,122.31-61.83,190.89-35.38c19.18,7.4,35.45,25.73,67.97,62.39
						c41.38,46.64,64.64,89.67,73.44,106.89c26.2,51.28,46.08,89.13,48.97,138.18c0.67,11.43,1.08,34.52,14.46,59.42
						c10.27,19.11,24.2,31.86,34.56,39.73C1114.32,2799.18,1123.91,2799.9,1133.49,2800.62z"/>
					
						<linearGradient id="SVGID_00000015353413863201835310000004147839441780319366_" gradientUnits="userSpaceOnUse" x1="-1466.6355" y1="2841.4558" x2="-1353.6556" y2="2483.8933" gradientTransform="matrix(-1 0 0 1 -481.7885 0)">
						<stop  offset="0" style="stop-color:#AB316D"/>
						<stop  offset="1" style="stop-color:#792D3D"/>
					</linearGradient>
					<path style="opacity:0.3;fill:url(#SVGID_00000015353413863201835310000004147839441780319366_);" d="M565.6,2291.61
						c2.81-24.48,17.36-41.09,23.17-48.74c50.27-66.25,164.21-80.93,287.73-44.7c11.25,19.38,29.91,46.88,59.25,73.04
						c35.14,31.32,63.98,41.4,84.14,52.67c56.4,31.5,86.44,95.34,103.73,155.77c-25.66-39.78-47.62-50.36-64.62-50.55
						c-24.33-0.27-35.2,20.53-64.25,17.69c-31.05-3.03-38.15-28.71-63.32-31.66c-7.53-0.88-16.8,0.28-27.94,6.21
						c-14.86-15.56-25.93-24.76-38.18-29.49c-68.58-26.44-113.48,53.03-190.89,35.38C613.53,2413.35,559.25,2346.84,565.6,2291.61z"
						/>
					
						<linearGradient id="SVGID_00000149382404000545726820000008168204081890063020_" gradientUnits="userSpaceOnUse" x1="-1307.6573" y1="2250.6724" x2="-1228.3826" y2="2708.9802" gradientTransform="matrix(-1 0 0 1 -481.7885 0)">
						<stop  offset="0" style="stop-color:#AB316D"/>
						<stop  offset="1" style="stop-color:#792D3D"/>
					</linearGradient>
					<path style="fill:url(#SVGID_00000149382404000545726820000008168204081890063020_);" d="M1069.49,2366.69
						c-13.98-0.74-35.51-1.17-61.48,1.39c-123.25,12.18-157.22,73.14-259.09,88.02c-24.1,3.52-131.38,19.19-177.85-42.83
						c-33.36-44.53-28.31-121.25,8.18-151.43c15.44-12.77,30.73-12.42,129.63-11.52c37.25,0.34,74.49,0.46,111.74,0.93
						c157.66,2.01,187.81-8.91,216.5,17.17C1050.5,2280.58,1070.07,2306.71,1069.49,2366.69z"/>
					<g>
						<g>
							
								<linearGradient id="SVGID_00000077318166706069266660000006360773028288841377_" gradientUnits="userSpaceOnUse" x1="501.6058" y1="3093.7971" x2="843.9698" y2="1530.549">
								<stop  offset="3.597120e-03" style="stop-color:#E38DDD"/>
								<stop  offset="1" style="stop-color:#9571F6"/>
							</linearGradient>
							<path style="fill:url(#SVGID_00000077318166706069266660000006360773028288841377_);" d="M736.65,1860.83
								c0,0-183.98-53.65-203.06,81.03c-18.29,129.09,75.42,188.33,32.78,319.09c-4.94,15.16,350.21-54.27,350.21-54.27
								c-47.41-59.15-58.43-107.94-59.56-141.87c-1.24-37.19,9.48-54.1,0-98.07c0,0-10.58-49.06-48.73-91.19
								C802.81,1869.52,796.28,1863.22,736.65,1860.83z"/>
						</g>
					</g>
					<g>
						
							<linearGradient id="SVGID_00000100352402716623137100000012008480727287427750_" gradientUnits="userSpaceOnUse" x1="2627.719" y1="1695.7911" x2="2635.8145" y2="1480.1487" gradientTransform="matrix(0.984 0.1784 -0.1784 0.984 -1583.4474 -186.0678)">
							<stop  offset="0" style="stop-color:#FFC444"/>
							<stop  offset="0.9964" style="stop-color:#F36F56"/>
						</linearGradient>
						<path style="fill:url(#SVGID_00000100352402716623137100000012008480727287427750_);" d="M696.7,1780.12
							c1.69,7.87,10.26,50.13-7.02,61c-3.75,2.36-10.95,3.71-25.35,6.41c-9.43,1.77-17.34,2.85-22.92,3.52
							c0.81,7.08,3.19,18.62,11.37,29.11c22.92,29.41,68.88,21.8,75.43,20.6c23.12-4.21,45.86-11.35,51.36-15.72
							c8.36-6.65,14.94-11.63,18.83-16.7c-8.95-4.32-27.01-15.72-39.13-19.45c-9.06-2.79-17.56-4.78-25.3-6.2
							c-1.27-8.16-2.54-16.32-3.82-24.49C719.01,1805.49,707.85,1792.81,696.7,1780.12z"/>
						
							<linearGradient id="SVGID_00000043456432932506822200000014964550649753743241_" gradientUnits="userSpaceOnUse" x1="2625.1926" y1="1505.4214" x2="2621.7273" y2="1784.6217" gradientTransform="matrix(0.984 0.1784 -0.1784 0.984 -1583.4474 -186.0678)">
							<stop  offset="0" style="stop-color:#FFC444"/>
							<stop  offset="0.9964" style="stop-color:#F36F56"/>
						</linearGradient>
						<path style="fill:url(#SVGID_00000043456432932506822200000014964550649753743241_);" d="M695.89,1801.17
							c0,0,3.12,30.96,33.22,36.42c26.95,4.89,47.24-60.24,33.44-77.08c-4.6-5.62-15.96-10.96-25.8-10.68
							c-6.92,0.2-30.31,9.11-33.58,32.51c-4.66-4.91-10.46-6.32-13.32-4.26c-3.63,2.61-1.69,10.19-1.24,11.9
							C690.13,1795.93,694.02,1799.62,695.89,1801.17z"/>
					</g>
				</g>
			</g>
			<g>
				
					<linearGradient id="SVGID_00000008854511299840011270000016114360911959755953_" gradientUnits="userSpaceOnUse" x1="66.5817" y1="2244.6855" x2="374.3536" y2="2244.6855" gradientTransform="matrix(-1 0 0 1 1028.2047 0)">
					<stop  offset="0" style="stop-color:#40447E"/>
					<stop  offset="0.9964" style="stop-color:#3C3B6B"/>
				</linearGradient>
				<path style="fill:url(#SVGID_00000008854511299840011270000016114360911959755953_);" d="M954.08,2221.81l-281.58,13.7
					c-3.88,0.19-7.41,2.27-9.46,5.56l-7.79,12.51c-3.88,6.22,0.78,14.25,8.11,13.97l298.26-11.36L954.08,2221.81z"/>
				
					<linearGradient id="SVGID_00000158732341211879849930000000661013344658075812_" gradientUnits="userSpaceOnUse" x1="-130.2385" y1="2050.5417" x2="71.5453" y2="2250.7112" gradientTransform="matrix(-1 0 0 1 1028.2047 0)">
					<stop  offset="0" style="stop-color:#40447E"/>
					<stop  offset="0.9964" style="stop-color:#3C3B6B"/>
				</linearGradient>
				<path style="fill:url(#SVGID_00000158732341211879849930000000661013344658075812_);" d="M1246.95,2065.01l-290.91,5.64
					c-8.61,0.17-16.49,4.86-20.74,12.34l-100.74,177.24l307.23-12.24c8.43-0.34,16.13-4.9,20.46-12.14l93.33-155.93
					C1259.57,2073.28,1254.69,2064.86,1246.95,2065.01z"/>
				
					<linearGradient id="SVGID_00000025442785872067037330000012762128423158743189_" gradientUnits="userSpaceOnUse" x1="-130.238" y1="2050.542" x2="71.5459" y2="2250.7114" gradientTransform="matrix(-1 0 0 1 1028.2047 0)">
					<stop  offset="0" style="stop-color:#40447E"/>
					<stop  offset="0.9964" style="stop-color:#3C3B6B"/>
				</linearGradient>
				<path style="opacity:0.3;fill:url(#SVGID_00000025442785872067037330000012762128423158743189_);" d="M935.3,2082.99
					c4.25-7.48,12.14-12.17,20.74-12.34l6.38-0.12c0.95,9.39,3.83,17.98,9.58,24.92c17.94,21.65,47.74,8.3,69.95,31.21
					c24.4,25.17,1.86,55.13,23.67,78.56c22.96,24.66,60.09,4.58,102.78,20.36l-6.15,10.27c-4.33,7.24-12.03,11.81-20.46,12.14
					l-307.23,12.24L935.3,2082.99z"/>
			</g>
			<g>
				
					<linearGradient id="SVGID_00000152951514342238915010000017086141401054777278_" gradientUnits="userSpaceOnUse" x1="353.1154" y1="3061.2764" x2="695.4797" y2="1498.0267">
					<stop  offset="3.597120e-03" style="stop-color:#E38DDD"/>
					<stop  offset="1" style="stop-color:#9571F6"/>
				</linearGradient>
				<path style="fill:url(#SVGID_00000152951514342238915010000017086141401054777278_);" d="M695.45,2212.4
					c3.66-9.68,7.33-19.36,11-29.04c-40.51-11.11-96.53-27.51-153.99-48.05c-9-3.22-19.69-7.2-23.19-16.67
					c-9.83-26.56,52.64-54.09,76.92-112.09c22.46-53.64,10.1-128.09-15.97-136.88c-54.24-18.3-246.56,221.1-177.87,322.02
					C451.17,2248.74,570.88,2257.82,695.45,2212.4z"/>
			</g>
			
				<linearGradient id="SVGID_00000005978062870806782100000000512176973568940687_" gradientUnits="userSpaceOnUse" x1="768.882" y1="2183.9961" x2="666.5721" y2="2280.4102">
				<stop  offset="0" style="stop-color:#FFC444"/>
				<stop  offset="0.9964" style="stop-color:#F36F56"/>
			</linearGradient>
			<path style="fill:url(#SVGID_00000005978062870806782100000000512176973568940687_);" d="M706.44,2183.37
				c25.43-13.51,55.87,0.34,57.83,1.27c5.59,2.64,13.72,7.34,21.94,15.73c0.93,1.27,11.96,16.55,7.94,21.45
				c-3.22,3.92-15.69,0.67-30.69-8.65c-6.28-0.88-15.64-1.69-26.85-0.66c-20.58,1.9-30.01,8.4-37.48,2.79
				c-5.47-4.11-7.34-12.8-5.37-19.25C695.88,2189.1,702.14,2185.65,706.44,2183.37z"/>
		</g>
		<g>
			<g>
				
					<linearGradient id="SVGID_00000034069075884175461920000011291221881409005737_" gradientUnits="userSpaceOnUse" x1="-3437.5554" y1="2385.8906" x2="-3770.2954" y2="2781.5491" gradientTransform="matrix(1 0 0 1 3915.5012 0)">
					<stop  offset="3.597120e-03" style="stop-color:#E38DDD"/>
					<stop  offset="1" style="stop-color:#9571F6"/>
				</linearGradient>
				<path style="fill:url(#SVGID_00000034069075884175461920000011291221881409005737_);" d="M452.37,2809.73
					c20.05-99.08,11.42-178.71,2.31-226.79c-11.05-58.33-33.51-176.92-127.78-243.02c-7.43-5.21-81.18-55.93-114.3-30.74
					c-17.08,12.99-20.98,44.37-13.51,69.13c19.28,63.94,106.23,56.85,135.12,129.62c9.62,24.23,11.4,53.8,4.69,56.59
					c-8.26,3.43-31.82-32.73-34.06-36.17c-21-32.24-21.2-50.49-37.21-55.44c-9.83-3.04-22.79-0.19-28.59,7.58
					c-13.2,17.68,12.88,57.98,20.17,69.24c19.07,29.46,34.99,36.16,38.87,61.24c1.67,10.8,1.37,26.77-5.04,29.26
					c-8.66,3.37-25.2-19.2-35.81-33.68c-28.52-38.92-31.56-61.55-45.75-63.17c-13.23-1.51-28.14,16.17-31.97,26.95
					C169.06,2599.74,211.07,2662.34,452.37,2809.73z"/>
				<path class="st43" d="M449.36,2792.74c3-92.07-11.91-165.06-25.41-212.95c-17.35-61.57-49.99-177.36-141.57-227.47
					c-6.51-3.56-54.38-29.76-67.76-15.73c-8.92,9.35-1.01,35.03,12.1,52.03c22.38,29.01,48.15,17.5,84.7,45.98
					c32.79,25.55,44.31,59.96,47.19,68.97c10.69,33.41,5.14,62.05,3.63,72.6C356.51,2616.23,368.24,2681.89,449.36,2792.74z"/>
				<path class="st43" d="M416.69,2769.75c-51.35-45.99-63.22-83.67-64.13-110.11c-0.71-20.6,4.86-45.05-10.89-67.76
					c-10.08-14.53-17.67-12.19-35.09-27.83c-36.38-32.67-40.9-76.72-48.4-75.02c-4.17,0.95-6.34,15.39-3.63,29.04
					c5.59,28.16,27.61,31.11,49.61,65.34c15.03,23.38,20.24,46.12,22.99,58.08c6.7,29.19,2.15,39.43,6.05,55.66
					C338.26,2718.18,356.55,2745.33,416.69,2769.75z"/>
			</g>
			<g>
				
					<linearGradient id="SVGID_00000041974252335819853960000011278732060994388099_" gradientUnits="userSpaceOnUse" x1="-3288.4509" y1="2971.7517" x2="-3314.8042" y2="2732.1765" gradientTransform="matrix(0.9986 0.0527 -0.0527 0.9986 3889.5034 46.8159)">
					<stop  offset="0" style="stop-color:#AA80F9"/>
					<stop  offset="0.9964" style="stop-color:#6165D7"/>
				</linearGradient>
				<path style="fill:url(#SVGID_00000041974252335819853960000011278732060994388099_);" d="M421.52,2825.74
					c-89.01,5.1-115.47,10.44-157.42-3.86c-39.42-13.43-79.85-39.88-76.3-52.02c2.55-8.71,27.29-8.59,42.07-8.52
					c39.66,0.18,72.37,12.33,95.32,24.08c-19.79-13.43-39.59-26.87-59.38-40.3c-13.82-4.95-37.21-15.44-57.93-37.61
					c-12.97-13.88-42.78-51.48-31.57-69.54c11.7-18.87,67.29-15.06,99.34,11.7c15.38,12.84,15.4,22.67,36.01,45.09
					c18.73,20.37,38.07,33.31,51.65,41.11c-12.73-15.91-30.04-40.77-43.5-74.27c-20.45-50.9-35.89-131.43-9.88-146.07
					c17.26-9.71,51.47,10.3,68.58,34.01c13.87,19.23,12.51,35.35,22.06,97.13c4.15,26.86,8.22,48.49,10.86,61.91
					c26.47-58.07,34.15-106.92,35.7-142.83c1.99-46.14-5.64-82.29,12-91.91c15.73-8.57,43.81,8.15,58.06,23.84
					c57.66,63.51-18.42,212.56-26.46,227.95c21.16-16.02,50.31-41.09,78.55-77.32c30.2-38.74,42.95-67.58,58.3-65
					c15.27,2.57,25.33,35.07,24.18,60.23c-3.19,70.12-94.78,111.31-104.55,115.55c7.7,1.24,20.77,2.54,36.17-0.4
					c34.15-6.52,44.8-27.22,79.44-34.24c13.25-2.69,40.34-5.47,43.68,2.73c5.99,14.72-62.43,70.03-145.46,91.11
					C530.62,2826.01,537.9,2819.07,421.52,2825.74z"/>
				<path class="st43" d="M362.77,2775.01c-40.53-18.02-35.02-42.51-79.35-72.85c-28.39-19.43-34.99-12.35-65.41-30.92
					c-16.73-10.21-30.41-21.93-41.52-33.51c-0.05,0.08-0.12,0.16-0.17,0.24c-11.2,18.06,18.6,55.66,31.57,69.54
					c20.72,22.17,44.11,32.66,57.93,37.61c19.79,13.43,39.59,26.87,59.38,40.3c-22.95-11.74-55.66-23.89-95.32-24.08
					c-12.88-0.06-33.34-0.15-40.06,5.59c11.91,7.39,22.63,10.94,31.35,12.72c19.88,4.06,32.36-0.48,49.56,9.89
					c13.8,8.32,12.65,15.39,24.8,19.89c11.43,4.24,17.28-0.23,45.49-4.87c27.45-4.51,41.4-6.62,52.49,0.35
					c8.38,5.27,12.83,13.95,15.29,21.59c2.84-0.17,5.75-0.35,8.74-0.52c-2.21-8.77-6.26-18.83-13.98-27.81
					C391.32,2783.93,377.94,2781.75,362.77,2775.01z"/>
				<path class="st43" d="M478.26,2806.15c6.4-1.53,9.46,3.05,18.36,4.2c16.53,2.15,22.72-11.49,42.15-17.97
					c22.99-7.67,28.82,6.6,51.72-0.5c18.13-5.62,15.79-14.96,39.48-28.61c25.2-14.52,35.88-8.56,54.4-20.55
					c5.95-3.85,12.75-9.59,19.21-18.51c-8.14-4.41-29.45-2.06-40.73,0.23c-34.64,7.03-45.29,27.73-79.44,34.24
					c-15.4,2.94-28.46,1.64-36.17,0.4c9.77-4.25,101.36-45.43,104.55-115.55c1.06-23.33-7.52-52.97-20.96-59.19
					c1.6,16.2,1.82,30.05,1.57,40.94c-0.57,25.34-1.02,38.23-9.04,48.8c-13.91,18.34-30.86,8.78-53.98,27.84
					c-21.04,17.36-13.71,30.82-35.66,48.2c-18.94,15-30.17,9.54-48,21.7c-11.18,7.63-24.77,22.08-32.92,52.32
					c3.72-0.17,7.27-0.32,10.66-0.46C466.68,2815.09,471.35,2807.8,478.26,2806.15z"/>
				<path class="st43" d="M458.26,2710.58c11.09-30.21,30.35-27.1,38.38-53.71c7.99-26.45-9.48-34.67-5.03-72.96
					c3.34-28.69,14.17-32.92,14.89-52.53c0.53-14.46-4.57-34.15-28.13-58.57c-7.15-1.88-13.89-1.88-19.22,1.02
					c-17.65,9.62-10.01,45.77-12,91.91c-1.55,35.91-9.23,84.76-35.7,142.83c-2.64-13.42-6.71-35.05-10.86-61.91
					c-9.55-61.78-8.19-77.91-22.06-97.13c-17.11-23.71-51.32-43.72-68.58-34.01c-0.99,0.55-1.91,1.22-2.77,1.95
					c8.61,5.87,16.55,13.08,23.22,21.97c22.76,30.32,9.81,52.05,30.44,111.87c19.84,57.53,39.97,61.08,55.94,110.79
					c5.1,15.88,9.91,36.89,10.9,63.29c5.83-0.32,11.32-0.61,16.52-0.86c5.98-19.58,8.79-37.1,10-51.97
					C456.83,2739.84,450.77,2730.99,458.26,2710.58z"/>
			</g>
		</g>
		<g>
			<g>
				<g>
					<g>
						<g>
							
								<linearGradient id="SVGID_00000012474225235883833380000011203621150650042263_" gradientUnits="userSpaceOnUse" x1="1870.0291" y1="430.2715" x2="1972.8483" y2="1359.752">
								<stop  offset="0" style="stop-color:#311944"/>
								<stop  offset="1" style="stop-color:#893976"/>
							</linearGradient>
							<path style="fill:url(#SVGID_00000012474225235883833380000011203621150650042263_);" d="M1955.61,867.24l33.7-0.18
								c0,0,80.72-101.3,135.27-106.89l5.05-285.39c-208.92,0.69-393.31,117.45-477.28,290.02L1955.61,867.24z"/>
							
								<linearGradient id="SVGID_00000003814664026901193860000011819162508844655793_" gradientUnits="userSpaceOnUse" x1="2251.0706" y1="1164.0598" x2="2652.2988" y2="1974.462">
								<stop  offset="0" style="stop-color:#311944"/>
								<stop  offset="1" style="stop-color:#893976"/>
							</linearGradient>
							<path style="fill:url(#SVGID_00000003814664026901193860000011819162508844655793_);" d="M2358.65,993.71
								c-17.13,93.77-103.25,167.49-208.75,170.75c-25.97,0.8-56.26-14.64-56.26-14.64s-27.78,1.52-32.53-0.32l-164.68,252.92
								c76.55,34.28,163.02,51.07,253.47,45.91c263.05-14.99,469.86-211.41,492.83-447.86L2358.65,993.71z"/>
							
								<linearGradient id="SVGID_00000121990117037497948980000017067134292732149413_" gradientUnits="userSpaceOnUse" x1="1614.8687" y1="823.0269" x2="2204.2529" y2="1580.8063">
								<stop  offset="0" style="stop-color:#311944"/>
								<stop  offset="1" style="stop-color:#893976"/>
							</linearGradient>
							<path style="fill:url(#SVGID_00000121990117037497948980000017067134292732149413_);" d="M1844.88,1375.81l32.95,1.13
								l133.25-254.79c-49.71-36.51-81.66-93.32-81.66-157.76c0-15.57,1.88-30.75,5.43-45.36l-271.4-101.6l-33.01,0.38
								c-16.35,47.54-25.18,98.13-25.18,150.53C1605.25,1141.85,1701.23,1291.24,1844.88,1375.81z"/>
						</g>
						<g>
							
								<linearGradient id="SVGID_00000127025190455039930770000012290665614792352418_" gradientUnits="userSpaceOnUse" x1="2770.2908" y1="298.5973" x2="2378.9409" y2="844.3331">
								<stop  offset="0" style="stop-color:#311944"/>
								<stop  offset="1" style="stop-color:#893976"/>
							</linearGradient>
							<path style="fill:url(#SVGID_00000127025190455039930770000012290665614792352418_);" d="M2182.16,761.4
								c96.08,14.18,169.95,88.03,178.73,179.3l464.54,13.35c0-0.1,0-0.19,0-0.29c0,0,0-0.15,0-0.29c0-0.35,70.03-11.17,70.03-11.21
								c-0.02-3.16-634.59-664.81-634.59-664.81l-70.38,11.47C2190.48,288.92,2184.94,603.91,2182.16,761.4z"/>
						</g>
					</g>
					<g>
						<g>
							
								<linearGradient id="SVGID_00000079465594655535639280000007179707676398348182_" gradientUnits="userSpaceOnUse" x1="1903.3403" y1="430.9165" x2="2005.2004" y2="1351.7268">
								<stop  offset="0" style="stop-color:#FFC444"/>
								<stop  offset="0.9964" style="stop-color:#F36F56"/>
							</linearGradient>
							<path style="fill:url(#SVGID_00000079465594655535639280000007179707676398348182_);" d="M1988.85,867.24
								c33.64-58.38,96.24-99.61,168.97-107.08l5.05-285.39c-208.92,0.69-393.31,117.45-477.28,290.02L1988.85,867.24z"/>
							
								<linearGradient id="SVGID_00000097484631186865438420000005229743934358551982_" gradientUnits="userSpaceOnUse" x1="2284.3105" y1="1164.0598" x2="2685.5388" y2="1974.462">
								<stop  offset="3.597120e-03" style="stop-color:#E38DDD"/>
								<stop  offset="1" style="stop-color:#9571F6"/>
							</linearGradient>
							<path style="fill:url(#SVGID_00000097484631186865438420000005229743934358551982_);" d="M2391.89,993.71
								c-17.13,93.77-103.25,167.49-208.75,170.75c-31.46,0.97-61.52-4.42-88.79-14.96l-164.68,252.92
								c76.55,34.28,163.02,51.07,253.47,45.91c263.05-14.99,469.86-211.41,492.83-447.86L2391.89,993.71z"/>
							
								<linearGradient id="SVGID_00000011748571319296367730000003602225474985494170_" gradientUnits="userSpaceOnUse" x1="1648.2271" y1="823.1793" x2="2216.6296" y2="1553.9823">
								<stop  offset="0" style="stop-color:#AA80F9"/>
								<stop  offset="0.9964" style="stop-color:#6165D7"/>
							</linearGradient>
							<path style="fill:url(#SVGID_00000011748571319296367730000003602225474985494170_);" d="M1878.12,1375.81l166.2-253.66
								c-49.71-36.51-81.66-93.32-81.66-157.76c0-15.57,1.88-30.75,5.43-45.36L1663.66,817.8c-16.35,47.54-25.18,98.13-25.18,150.53
								C1638.49,1141.85,1734.47,1291.24,1878.12,1375.81z"/>
						</g>
						<g>
							
								<linearGradient id="SVGID_00000013914570336363643070000009535191286826424252_" gradientUnits="userSpaceOnUse" x1="2864.3413" y1="210.1418" x2="2433.8245" y2="810.4955">
								<stop  offset="0" style="stop-color:#FF9085"/>
								<stop  offset="1" style="stop-color:#FB6FBB"/>
							</linearGradient>
							<path style="fill:url(#SVGID_00000013914570336363643070000009535191286826424252_);" d="M2252.2,749.37
								c96.08,14.18,169.95,88.03,178.73,179.3l464.54,13.35c0-0.19,0-0.39,0-0.58c0-338.03-271.53-627.31-634.95-664.55
								L2252.2,749.37z"/>
						</g>
					</g>
					<g class="st2">
						
							<linearGradient id="SVGID_00000116923048784551788880000014303052979938301365_" gradientUnits="userSpaceOnUse" x1="2091.5269" y1="1265.0765" x2="2485.3662" y2="2060.5547">
							<stop  offset="3.597120e-03" style="stop-color:#E38DDD"/>
							<stop  offset="1" style="stop-color:#9571F6"/>
						</linearGradient>
						<path style="fill:url(#SVGID_00000116923048784551788880000014303052979938301365_);" d="M2119.63,1157.56
							c-8.65-2.2-17.09-4.89-25.28-8.06l-164.68,252.92c76.55,34.28,163.02,51.07,253.47,45.91
							c73.08-4.16,141.81-22.35,203.48-51.49c-62.25-9.35-117.82-32.77-162.2-71.79
							C2173.87,1280.59,2141.08,1218.76,2119.63,1157.56z"/>
					</g>
					<g class="st2">
						
							<linearGradient id="SVGID_00000018950122151375000740000006847096139467457159_" gradientUnits="userSpaceOnUse" x1="1855.9014" y1="436.9615" x2="1957.5792" y2="1356.125">
							<stop  offset="0" style="stop-color:#FFC444"/>
							<stop  offset="0.9964" style="stop-color:#F36F56"/>
						</linearGradient>
						<path style="fill:url(#SVGID_00000018950122151375000740000006847096139467457159_);" d="M2064.34,588.04
							c-19.56-35.77-47.52-62.89-78.9-83.6c-132.03,45.19-240.79,138.96-299.86,260.35l303.26,102.44
							c21.05-36.53,53.44-66.35,92.56-85.38C2089.31,705.93,2098.27,650.11,2064.34,588.04z"/>
					</g>
				</g>
			</g>
			<g>
				
					<linearGradient id="SVGID_00000000913091379779909030000012185510639956408707_" gradientUnits="userSpaceOnUse" x1="1354.0819" y1="485.2962" x2="1744.1493" y2="485.2962">
					<stop  offset="0" style="stop-color:#FFC444"/>
					<stop  offset="0.9964" style="stop-color:#F36F56"/>
				</linearGradient>
				
					<ellipse style="fill:url(#SVGID_00000000913091379779909030000012185510639956408707_);" cx="1549.12" cy="485.3" rx="195.03" ry="155.26"/>
				<path class="st4" d="M1549.12,383.72c-38.53,0-69.76,31.23-69.76,69.76c0,24.97,29.29,83.05,49.92,120.84
					c8.57,15.71,31.11,15.71,39.69,0c20.62-37.79,49.92-95.87,49.92-120.84C1618.88,414.95,1587.64,383.72,1549.12,383.72z
					 M1549.12,490.93c-20.69,0-37.45-16.77-37.45-37.45c0-20.69,16.77-37.45,37.45-37.45s37.46,16.77,37.46,37.45
					C1586.57,474.17,1569.8,490.93,1549.12,490.93z"/>
				<g class="st2">
					
						<linearGradient id="SVGID_00000046327927871807448040000012341494203770939834_" gradientUnits="userSpaceOnUse" x1="1404.6144" y1="384.8712" x2="1657.8149" y2="892.9837">
						<stop  offset="0" style="stop-color:#FFC444"/>
						<stop  offset="0.9964" style="stop-color:#F36F56"/>
					</linearGradient>
					<path style="fill:url(#SVGID_00000046327927871807448040000012341494203770939834_);" d="M1596.47,601.01
						c-23.53-45.85,0.26-88.71-31.55-118.34c-32.32-30.1-74.31-2.12-119.51-26.63c-17.47-9.48-36.9-27.61-51.34-64.93
						c-25.08,26.12-39.98,58.77-39.98,94.19c0,85.75,87.32,155.26,195.03,155.26c24.68,0,48.28-3.65,70.01-10.31
						C1608.41,620.49,1601.32,610.46,1596.47,601.01z"/>
				</g>
			</g>
			<g>
				
					<linearGradient id="SVGID_00000137850343472063532290000000603032651474199729_" gradientUnits="userSpaceOnUse" x1="1788.0204" y1="184.655" x2="1964.4576" y2="511.8938">
					<stop  offset="3.597120e-03" style="stop-color:#E38DDD"/>
					<stop  offset="1" style="stop-color:#9571F6"/>
				</linearGradient>
				
					<ellipse style="fill:url(#SVGID_00000137850343472063532290000000603032651474199729_);" cx="1835.74" cy="273.16" rx="133.27" ry="106.09"/>
				<path class="st4" d="M1794.08,323.62V222.71c0-6.48,5.43-10.74,10.14-7.95l85.02,50.46c5.38,3.19,5.38,12.71,0,15.9
					l-85.02,50.46C1799.51,334.36,1794.08,330.1,1794.08,323.62z"/>
				<g class="st2">
					
						<linearGradient id="SVGID_00000130640112394028269300000016919736004703037350_" gradientUnits="userSpaceOnUse" x1="1737.0006" y1="204.5409" x2="1910.0183" y2="551.7459">
						<stop  offset="3.597120e-03" style="stop-color:#E38DDD"/>
						<stop  offset="1" style="stop-color:#9571F6"/>
					</linearGradient>
					<path style="fill:url(#SVGID_00000130640112394028269300000016919736004703037350_);" d="M1868.1,352.23
						c-16.08-31.33,0.18-60.62-21.56-80.87c-22.08-20.57-50.78-1.45-81.66-18.2c-11.94-6.47-25.22-18.86-35.08-44.37
						c-17.14,17.85-27.32,40.16-27.32,64.36c0,58.59,59.67,106.09,133.27,106.09c16.86,0,32.99-2.49,47.84-7.04
						C1876.26,365.54,1871.41,358.69,1868.1,352.23z"/>
				</g>
			</g>
			<g>
				
					<linearGradient id="SVGID_00000029739696401184815010000002367830363178980247_" gradientUnits="userSpaceOnUse" x1="2526.7654" y1="1471.6985" x2="2757.1196" y2="1484.0389" gradientTransform="matrix(-1 0 0 1 5284.4292 0)">
					<stop  offset="0" style="stop-color:#AA80F9"/>
					<stop  offset="0.9964" style="stop-color:#6165D7"/>
				</linearGradient>
				<path style="fill:url(#SVGID_00000029739696401184815010000002367830363178980247_);" d="M2653.4,1596.51
					c0.45-0.03,0.9-0.07,1.35-0.1c0.82-0.06,1.64-0.13,2.45-0.2c0.45-0.04,0.9-0.09,1.35-0.13c0.81-0.08,1.63-0.16,2.44-0.24
					c0.43-0.05,0.86-0.1,1.29-0.14c0.84-0.09,1.67-0.19,2.51-0.3c0.39-0.05,0.78-0.1,1.17-0.15c0.88-0.12,1.76-0.24,2.63-0.36
					c0.33-0.05,0.67-0.1,1-0.15c0.95-0.14,1.9-0.29,2.84-0.45c0.25-0.04,0.5-0.08,0.75-0.12c1.06-0.18,2.12-0.37,3.17-0.56
					c0.13-0.02,0.26-0.05,0.39-0.07c8.41-1.58,16.55-3.67,24.36-6.24c-0.01-0.01-0.01-0.01-0.02-0.02
					c56.77-18.67,96.33-62.03,96.33-111.29c0-64.08-66.93-116.52-151.64-117.15c-82.35-0.61-151.63,47.71-159.04,109.96
					c-0.04,0.34-0.08,0.68-0.12,1.02c-0.06,0.51-0.1,1.02-0.15,1.54c-0.04,0.48-0.08,0.97-0.12,1.45c-0.03,0.44-0.06,0.87-0.09,1.31
					c-0.04,0.6-0.07,1.21-0.09,1.81c-0.01,0.34-0.03,0.69-0.04,1.03c-0.03,0.96-0.05,1.93-0.05,2.9c0,32.69,17.02,61.83,44.48,82.88
					c1.77,1.36,3.59,2.68,5.44,3.97c1.86,1.29,3.75,2.54,5.69,3.76c0.97,0.61,1.95,1.21,2.94,1.8c1.98,1.18,3.99,2.33,6.05,3.43
					c2.05,1.11,4.15,2.17,6.27,3.2c1.8,0.87,3.63,1.71,5.48,2.52c10.37,4.56,21.49,8.22,33.2,10.84c2.25,0.5,4.52,0.97,6.8,1.4
					c13.82,2.57,28.37,3.72,43.36,3.24c1.28-0.04,2.55-0.1,3.82-0.16c0.4-0.02,0.79-0.05,1.19-0.07
					C2651.65,1596.62,2652.53,1596.57,2653.4,1596.51z"/>
				<g>
					
						<linearGradient id="SVGID_00000124852193485794103980000013034012574684201357_" gradientUnits="userSpaceOnUse" x1="-3655.9644" y1="1378.6146" x2="-3458.0398" y2="1745.7057" gradientTransform="matrix(1 0 0 1 6254.8242 0)">
						<stop  offset="0" style="stop-color:#AA80F9"/>
						<stop  offset="0.9964" style="stop-color:#6165D7"/>
					</linearGradient>
					<path style="fill:url(#SVGID_00000124852193485794103980000013034012574684201357_);" d="M2805.38,1475.98
						c0,64.08-65.74,118.19-148.94,120.92c-85.62,2.81-156.87-49.55-156.87-117.05c0-67.49,71.25-121.67,156.87-121.02
						C2739.64,1359.46,2805.38,1411.9,2805.38,1475.98z"/>
					<g>
						<path class="st4" d="M2605.79,1560.1l6.73-45.1l-21,0.4v-23.17l25.13-0.38l4.13-28.13l-21.98,0.22v-23.39l25.59-0.16
							l6.43-43.57l22.77,0.02l-6.38,43.41l23.15-0.15l6.58-43.24l22.41,0.02l-6.53,43.07l20.05-0.13v22.95l-23.57,0.24l-4.03,27.8
							l20.85-0.31v22.72l-24.63,0.46l-6.32,44.57l-22.85,0.6l6.37-44.74l-23.24,0.44l-6.42,44.92L2605.79,1560.1z M2662.73,1491.16
							l4.06-27.91l-23.18,0.24l-4.09,28.02L2662.73,1491.16z"/>
					</g>
					<g class="st2">
						
							<linearGradient id="SVGID_00000069377512467076942950000002882577272874702720_" gradientUnits="userSpaceOnUse" x1="-3713.2249" y1="1400.3629" x2="-3518.2776" y2="1791.5752" gradientTransform="matrix(1 0 0 1 6254.8242 0)">
							<stop  offset="0" style="stop-color:#AA80F9"/>
							<stop  offset="0.9964" style="stop-color:#6165D7"/>
						</linearGradient>
						<path style="fill:url(#SVGID_00000069377512467076942950000002882577272874702720_);" d="M2693.3,1565.55
							c-18.26-34.53,0.2-67.59-24.52-89.86c-25.32-22.82-58.56-0.91-94.74-19.53c-14.11-7.26-29.87-21.3-41.65-50.46
							c-20.56,20.53-32.83,46.27-32.83,74.15c0,67.49,71.25,119.86,156.87,117.05c19.27-0.63,37.59-4.02,54.35-9.61
							C2702.53,1580.12,2697.05,1572.65,2693.3,1565.55z"/>
					</g>
				</g>
			</g>
		</g>
	</g>
</g>
</svg>
