<?xml version="1.0" encoding="utf-8"?>
<!-- Generator: Adobe Illustrator 26.0.2, SVG Export Plug-In . SVG Version: 6.00 Build 0)  -->
<svg version="1.1" xmlns="http://www.w3.org/2000/svg" xmlns:xlink="http://www.w3.org/1999/xlink" x="0px" y="0px"
	 viewBox="0 0 3093.12 3049.92" style="enable-background:new 0 0 3093.12 3049.92;" xml:space="preserve">
<style type="text/css">
	.st0{fill:#F4F7FA;}
	.st1{clip-path:url(#SVGID_00000090281261423404918140000008332257948331393439_);}
	.st2{fill:#FFFFFF;}
	.st3{clip-path:url(#SVGID_00000110463252630749053210000004397190578953022890_);}
	.st4{clip-path:url(#SVGID_00000014602408907431347130000010893593145676371381_);}
	.st5{opacity:0.7;fill:#FFFFFF;}
	.st6{clip-path:url(#SVGID_00000043420782480808471260000018174455761594036100_);}
	.st7{fill:url(#SVGID_00000068665554905933763220000017275992770639844769_);}
	.st8{fill:url(#SVGID_00000080927491627393781910000002831044699198691756_);}
	.st9{fill:url(#SVGID_00000116924109440489435850000013006058438008407993_);}
	.st10{fill:url(#SVGID_00000051376758391200140970000003256642605098159787_);}
	.st11{fill:url(#SVGID_00000181801028076036959390000002862582293520378787_);}
	.st12{fill:url(#SVGID_00000108989998299642613760000001232505578708306860_);}
	.st13{fill:url(#SVGID_00000016035471629502568870000012818527394881805977_);}
	.st14{fill:url(#SVGID_00000060745991046673507700000009216786348835600797_);}
	.st15{fill:url(#SVGID_00000047048163805850484900000007583857146845219243_);}
	.st16{fill:url(#SVGID_00000018207368262826237140000005384902062778483106_);}
	.st17{fill:url(#SVGID_00000168117119360129233320000013256778072277947804_);}
	.st18{opacity:0.3;fill:url(#SVGID_00000134938489808808328910000015419308664590188954_);}
	.st19{fill:url(#SVGID_00000008133477563575667060000013851775001820586424_);}
	.st20{fill:url(#SVGID_00000025432982952675665870000004961185874667170712_);}
	.st21{opacity:0.3;fill:url(#SVGID_00000082351499354279954260000010925069906598687913_);}
	.st22{fill:url(#SVGID_00000175300386691847090600000004463343430366033039_);}
	.st23{fill:url(#SVGID_00000050654853933659036240000017533646082403290043_);}
	.st24{fill:url(#SVGID_00000070797187066601174720000013810198894761120665_);}
	.st25{fill:url(#SVGID_00000175295915913785049800000004793879526770021284_);}
	.st26{fill:url(#SVGID_00000045605027461664320830000000057566485711702955_);}
	.st27{fill:url(#SVGID_00000127016628160615518900000011927716248890648193_);}
	.st28{fill:url(#SVGID_00000007398948720147644100000003481476180278969479_);}
	.st29{opacity:0.25;fill:url(#SVGID_00000115507767289916354010000009111268963452267925_);}
	.st30{fill:url(#SVGID_00000165215872516414125270000006395814290059545021_);}
	.st31{fill:url(#SVGID_00000176010982181290808490000017545240143155463583_);}
	.st32{fill:url(#SVGID_00000003063070097220352450000000843878707101695165_);}
	.st33{opacity:0.3;fill:url(#SVGID_00000049934888477918453660000005553416006951233949_);}
	.st34{fill:url(#SVGID_00000077302348259894576160000004811491090267457672_);}
	.st35{opacity:0.4;fill:url(#SVGID_00000011027276599137847260000002508310771767613577_);}
	.st36{fill:url(#SVGID_00000048496908050924345260000002824860886612876712_);}
	.st37{fill:url(#SVGID_00000042735609276697595310000000760619257530457508_);}
	.st38{fill:#EA645E;}
	.st39{fill:url(#SVGID_00000111155329769580584090000008164382030643500735_);}
	.st40{fill:url(#SVGID_00000079482531036353949670000018234327137503943569_);}
	.st41{fill:url(#SVGID_00000018198115393411385010000008769248960189056403_);}
	.st42{fill:url(#SVGID_00000016057245690070345660000001814488010321064068_);}
	.st43{fill:url(#SVGID_00000173848351355541248030000017729396863745535877_);}
	.st44{fill:url(#SVGID_00000002352646073317433120000005916817578969718160_);}
	.st45{fill:url(#SVGID_00000139251909763427141130000014656972908986686142_);}
	.st46{fill:url(#SVGID_00000006708253055087927690000005434461927072240516_);}
	.st47{fill:url(#SVGID_00000035522288676949111940000001935539860314754489_);}
</style>
<g id="Background">
</g>
<g id="Illustration">
	<g>
		<path class="st0" d="M2621.14,2566.92c-74.74,77.04-141.61,122.32-192.81,156.51c-499.34,333.42-1070.15,237.32-1246.63,204.47
			c-284.73-52.99-525.08-90.38-731.58-276.95C-19.11,2227.02,3.71,1342.65,362.27,794.83c42.51-64.96,400.52-595.64,972.57-670.42
			c13.99-1.83,24.43-2.87,33.57-3.84c88.49-9.37,636.87-58.82,1084.02,315.8c64.01,53.62,167.01,150.35,262.53,297.87
			C3064.21,1273.65,3065.32,2109.08,2621.14,2566.92z"/>
		<g>
			<g>
				<g>
					<defs>
						<path id="SVGID_1_" d="M1387.72,2731.41c81.57-105.1,190.12-279.42,183.43-491.49c-11.66-369.98-360.93-438.41-483.79-894.53
							c-99.09-367.88,75.84-517.41-92.31-817.27C966.91,477.92,821.4,206.79,604.8,205.4c-122.06-0.78-212.49,84.3-229.46,100.27
							c-256.58,241.39-206.27,864.02,70.18,1285.98c158.83,242.44,252.62,242.07,571,596.89
							C1203.61,2397.04,1319.98,2598.11,1387.72,2731.41z"/>
					</defs>
					
						<linearGradient id="SVGID_00000018925700549413842990000005339371151287346829_" gradientUnits="userSpaceOnUse" x1="208.0041" y1="1468.4019" x2="1571.4421" y2="1468.4019">
						<stop  offset="0" style="stop-color:#FF9085"/>
						<stop  offset="1" style="stop-color:#FB6FBB"/>
					</linearGradient>
					
						<use xlink:href="#SVGID_1_"  style="overflow:visible;fill:url(#SVGID_00000018925700549413842990000005339371151287346829_);"/>
					<clipPath id="SVGID_00000152224330474167839100000006824388700000694452_">
						<use xlink:href="#SVGID_1_"  style="overflow:visible;"/>
					</clipPath>
					<g style="clip-path:url(#SVGID_00000152224330474167839100000006824388700000694452_);">
						<path class="st2" d="M1350.28,2889.69l-3.39-1.02c91.55-305.79,83.1-548.98-25.11-722.82
							c-52.84-84.89-110.1-124.81-170.72-167.07c-65.95-45.98-134.14-93.53-198.74-203.59c-62.84-107.07-66.88-179.46-72-271.11
							c-4.56-81.69-10.23-183.36-60.62-341.93c-44.17-139-88.89-217.1-128.34-286c-43.06-75.2-77.08-134.6-94.33-244.54
							c-28.13-179.23,9.27-369.15,111.17-564.49l3.14,1.63C609.8,283.41,572.52,472.6,600.53,651.07
							c17.15,109.29,51.02,168.44,93.91,243.33c39.54,69.06,84.36,147.32,128.64,286.69c50.52,158.99,56.21,260.91,60.78,342.8
							c5.09,91.17,9.11,163.18,71.52,269.51c64.21,109.4,132.08,156.72,197.72,202.48c60.92,42.48,118.47,82.6,171.7,168.1
							C1433.56,2338.72,1442.14,2582.89,1350.28,2889.69z"/>
						<path class="st2" d="M711.38,928.07l-2.12-1.06c-215.85-108.47-330.21-274.13-388.14-394
							c-62.77-129.88-74.66-235.55-74.77-236.6l3.51-0.38c0.11,1.05,11.96,106.22,74.5,235.57
							c57.51,118.95,170.83,283.18,384.39,391.2c3.23-16.87,24.47-122.69,69.43-235.9c45.12-113.61,124.05-258.13,243.84-301.41
							l1.2,3.32c-118.54,42.83-196.89,186.42-241.74,299.34c-48.68,122.57-69.49,236.46-69.7,237.6L711.38,928.07z"/>
						<path class="st2" d="M865.19,1352.02l-1.52-0.11c-1.23-0.1-124.4-10.12-278.7-75.38
							c-142.41-60.24-341.28-181.21-479.95-415.41l3.04-1.8c138.15,233.33,336.28,353.87,478.16,413.9
							c144.58,61.17,261.67,73.67,276.2,75.03c12.32-52.81,33.42-111.25,62.71-173.72c23.64-50.42,52.66-103.58,86.23-157.99
							c57.16-92.63,108.42-157.67,108.93-158.31l2.77,2.2c-0.51,0.64-51.67,65.55-108.72,158.02
							c-52.62,85.29-121.16,212.15-148.83,332.11L865.19,1352.02z"/>
						<path class="st2" d="M1025.03,1960.19c-34.81,0-81.59-2.1-137.63-9.62c-116.65-15.66-298.45-58.66-502.06-174.62l1.75-3.08
							c203.05,115.65,384.31,158.54,500.62,174.17c115.41,15.5,191.4,7.96,203.99,6.49c-26.29-140.04,22.88-280.49,68.89-373.84
							c50.03-101.51,107.22-170.74,107.79-171.43l2.72,2.26c-0.57,0.69-57.53,69.65-107.38,170.8
							c-45.95,93.26-95.08,233.74-68.2,373.4l0.35,1.83l-1.84,0.25C1093.6,1956.87,1068.77,1960.19,1025.03,1960.19z"/>
					</g>
				</g>
			</g>
			<g>
				<g>
					<defs>
						<path id="SVGID_00000182509664020402910980000015190082754503066796_" d="M1410,2679.98c11.49-81.79,16.15-209.2-52.92-321.36
							c-120.5-195.68-329.75-124.72-536.73-332.48c-166.94-167.56-118.88-302.11-302.01-411.72
							c-30.65-18.35-192.73-119.47-309.82-53.35c-65.99,37.26-88.43,111-92.64,124.84c-63.68,209.23,155.62,529.07,434.79,671.01
							c160.39,81.55,210.8,52.4,491.82,145.24C1207.61,2556.71,1332.36,2629.09,1410,2679.98z"/>
					</defs>
					
						<linearGradient id="SVGID_00000170246097397597413920000015449143547412566156_" gradientUnits="userSpaceOnUse" x1="104.7736" y1="2109.4424" x2="1416.7407" y2="2109.4424">
						<stop  offset="0" style="stop-color:#AA80F9"/>
						<stop  offset="0.9964" style="stop-color:#6165D7"/>
					</linearGradient>
					
						<use xlink:href="#SVGID_00000182509664020402910980000015190082754503066796_"  style="overflow:visible;fill:url(#SVGID_00000170246097397597413920000015449143547412566156_);"/>
					<clipPath id="SVGID_00000003827244785945785730000013852006424230423937_">
						<use xlink:href="#SVGID_00000182509664020402910980000015190082754503066796_"  style="overflow:visible;"/>
					</clipPath>
					<g style="clip-path:url(#SVGID_00000003827244785945785730000013852006424230423937_);">
						<path class="st2" d="M1435.91,2777.44c-45.04-192.78-124.55-321.01-236.33-381.14c-54.55-29.35-97.65-33.17-143.27-37.21
							c-49.79-4.41-101.27-8.98-170.17-48.4c-67.04-38.35-91.6-76.16-122.7-124.02c-27.65-42.57-62.07-95.53-138.1-165.34
							c-66.65-61.19-114.81-89.43-157.3-114.34c-46.47-27.25-83.18-48.77-126.49-102.76c-70.57-87.97-109.1-201.95-114.53-338.77
							l3.53-0.14c5.39,136.05,43.67,249.33,113.75,336.69c42.9,53.48,79.36,74.85,125.51,101.92
							c42.64,25.01,90.98,53.35,157.91,114.79c76.36,70.1,110.91,123.28,138.67,166.01c30.84,47.46,55.19,84.95,121.49,122.87
							c68.23,39.03,119.32,43.56,168.73,47.94c46,4.08,89.45,7.93,144.64,37.62c112.71,60.63,192.82,189.65,238.1,383.46
							L1435.91,2777.44z"/>
						<path class="st2" d="M457.21,1919.01c-134.88,0-237.14-49.82-300.75-93.36c-74-50.65-113.09-103.99-113.48-104.52l2.86-2.07
							c0.38,0.53,39.19,53.46,112.73,103.76c67.47,46.15,178.74,99.36,326.46,91.95c-8.92-26.31-90.02-275.98,3.28-385.93l2.7,2.29
							c-96.74,114.01-2.84,382-1.88,384.69l0.79,2.23l-2.36,0.13C477.29,1918.74,467.15,1919.01,457.21,1919.01z"/>
						<path class="st2" d="M449.33,2149.57c-87.96,0-197.22-17.68-307.93-80.45l1.74-3.08c146.26,82.93,290.02,86.69,384.87,75.26
							c94.86-11.44,161.03-39.95,171.26-44.56c-41.9-140.61-12.53-341.27-12.22-343.28l3.5,0.52
							c-0.3,2.02-29.76,203.31,12.56,343.21l0.44,1.46l-1.37,0.65c-0.69,0.33-70.23,33-173.6,45.49
							C504.94,2147.66,478.28,2149.57,449.33,2149.57z"/>
						<path class="st2" d="M575.13,2475.44l-0.01-3.54c144.93-0.39,255.71-33.21,323.11-60.66c65.12-26.53,103.4-53.29,111.21-58.99
							c-109.65-129.35-73.23-346.06-72.84-348.24l3.48,0.61c-0.38,2.17-36.79,218.88,73.27,346.77l1.21,1.41l-1.47,1.14
							C1011.54,2355.15,853.77,2474.69,575.13,2475.44z"/>
					</g>
				</g>
			</g>
		</g>
		<g>
			<g>
				<defs>
					<path id="SVGID_00000068635338560542823410000015681388393472268704_" d="M1900.81,2316.85
						c-75.23-86.32-50.5-258.37-0.75-365.75c58.08-125.37,126.96-112.27,164.55-213.29c69.98-188.08-140.09-310.61-84.56-505.88
						c45.4-159.63,203.01-138.32,245.24-317.38c30.47-129.21-36.95-202.41,26.63-306.14c5.44-8.87,65.43-103.66,159.52-106.29
						c94.96-2.66,169.12,90.12,200.44,157.92c57.91,125.34-21.89,184.05-7.77,357.82c19.22,236.58,178.51,267.79,156.66,444.91
						c-18.04,146.27-130.82,158.72-147.61,321.29c-15.59,150.96,76,195.08,55.78,295.64
						C2622.45,2311.04,2054.25,2492.92,1900.81,2316.85z"/>
				</defs>
				
					<linearGradient id="SVGID_00000058557827170150076800000003324075548765135503_" gradientUnits="userSpaceOnUse" x1="2015.6627" y1="665.4029" x2="2297.9023" y2="1658.1061">
					<stop  offset="0" style="stop-color:#FF9085"/>
					<stop  offset="1" style="stop-color:#FB6FBB"/>
				</linearGradient>
				
					<use xlink:href="#SVGID_00000068635338560542823410000015681388393472268704_"  style="overflow:visible;fill:url(#SVGID_00000058557827170150076800000003324075548765135503_);"/>
				<clipPath id="SVGID_00000115489219910613302820000012013625395075001758_">
					<use xlink:href="#SVGID_00000068635338560542823410000015681388393472268704_"  style="overflow:visible;"/>
				</clipPath>
				<g style="clip-path:url(#SVGID_00000115489219910613302820000012013625395075001758_);">
					<path class="st5" d="M2006.38,2455.23c-0.85,0-1.63-0.55-1.88-1.4c-0.31-1.04,0.28-2.13,1.32-2.45
						c96.78-29.09,183.22-77.14,256.93-142.83c69.82-62.22,142-126.55,161.11-223.5c14.45-73.29-10.06-120.67-41.1-180.67
						c-30.25-58.47-67.89-131.24-77.38-251.51c-5.42-68.68-12.16-154.15,31.22-244.43c25.28-52.61,54.52-78.6,80.33-101.55
						c26.97-23.98,48.28-42.92,55.02-84.1c11.01-67.24-14.23-118.54-43.46-177.93c-18.06-36.71-36.75-74.68-49.94-121.46
						c-37.14-131.68-1.09-287.59,107.14-463.42c0.57-0.92,1.78-1.21,2.7-0.65c0.93,0.57,1.22,1.78,0.65,2.7
						c-107.64,174.85-143.54,329.71-106.71,460.29c13.1,46.44,31.7,84.24,49.69,120.79c29.53,60,55.03,111.82,43.81,180.3
						c-6.97,42.56-29.82,62.88-56.29,86.4c-25.53,22.7-54.46,48.42-79.4,100.31c-42.92,89.32-36.22,174.21-30.84,242.41
						c9.43,119.49,46.87,191.86,76.96,250.02c31.39,60.67,56.18,108.6,41.46,183.23c-19.37,98.25-92.05,163.02-162.34,225.66
						c-74.15,66.08-161.09,114.42-258.42,143.66C2006.75,2455.21,2006.56,2455.23,2006.38,2455.23z"/>
					<path class="st5" d="M2320.95,1455c-0.63,0-1.24-0.3-1.62-0.85c-113.75-165.41-152.64-302.76-165.23-388.84
						c-13.66-93.43-0.15-148.53-0.01-149.07c0.26-1.05,1.33-1.69,2.39-1.42c1.05,0.26,1.69,1.34,1.42,2.39
						c-0.13,0.54-13.47,55.06,0.13,147.81c12.56,85.62,51.3,222.25,164.54,386.91c0.61,0.9,0.39,2.12-0.5,2.74
						C2321.72,1454.89,2321.34,1455,2320.95,1455z"/>
					<path class="st5" d="M2322.4,1751.18c-0.73,0-1.43-0.41-1.77-1.12c-0.47-0.98-0.05-2.15,0.93-2.62
						c217.45-103.94,305.2-257.51,340.52-368.05c38.29-119.82,24.97-216.33,24.83-217.29c-0.15-1.07,0.59-2.07,1.66-2.23
						c1.06-0.18,2.07,0.59,2.23,1.66c0.14,0.97,13.59,98.22-24.92,218.87c-35.54,111.33-123.83,265.99-342.63,370.58
						C2322.98,1751.12,2322.69,1751.18,2322.4,1751.18z"/>
					<path class="st5" d="M2341.97,2244.73c-0.33,0-0.67-0.09-0.98-0.26c-199.23-115.27-283.31-257.11-318.75-355.8
						c-38.44-107.02-29.56-187.92-29.47-188.73c0.13-1.07,1.14-1.83,2.18-1.72c1.08,0.13,1.85,1.1,1.73,2.18
						c-0.09,0.8-8.85,80.95,29.34,187.15c35.24,98.01,118.84,238.9,316.94,353.51c0.94,0.55,1.26,1.75,0.72,2.69
						C2343.31,2244.38,2342.65,2244.73,2341.97,2244.73z"/>
					<path class="st5" d="M2378.58,901.42c-0.64,0-1.26-0.31-1.64-0.88c-0.6-0.9-0.35-2.12,0.55-2.73
						c152.46-101.36,200.43-234.12,213.82-327.64c14.53-101.43-7.32-179.92-7.54-180.7c-0.3-1.04,0.31-2.13,1.35-2.43
						c1.06-0.3,2.13,0.31,2.43,1.35c0.22,0.79,22.28,79.94,7.67,182.17c-13.48,94.37-61.82,228.31-215.56,330.52
						C2379.33,901.32,2378.95,901.42,2378.58,901.42z"/>
				</g>
			</g>
		</g>
		<g>
			<g>
				<defs>
					<path id="SVGID_00000134933525907366522490000016164638467264175788_" d="M2054.15,2408.01
						c-39.64-86.17,20.17-217.15,84.77-290.88c75.43-86.09,127.12-59.6,180.57-131.12c99.52-133.16-38.85-279.58,50.86-421.82
						c73.34-116.28,193.64-62.56,269-195.02c54.38-95.59,17.87-169.51,92.62-237.11c6.39-5.78,76.2-67.12,151.6-47.25
						c76.1,20.05,113.39,111.1,122.46,172.3c16.77,113.14-60.36,141.18-89.69,282.59c-39.94,192.53,79.39,254.51,20.68,390.19
						c-48.48,112.04-141.03,95.62-192.31,220.92c-47.62,116.35,14.87,172.79-24.66,248
						C2629.08,2571.82,2135.01,2583.76,2054.15,2408.01z"/>
				</defs>
				
					<linearGradient id="SVGID_00000067218127080752208590000010772811480811562429_" gradientUnits="userSpaceOnUse" x1="2862.6287" y1="1930.3876" x2="3351.1873" y2="2130.7322">
					<stop  offset="3.597120e-03" style="stop-color:#E38DDD"/>
					<stop  offset="1" style="stop-color:#9571F6"/>
				</linearGradient>
				
					<use xlink:href="#SVGID_00000134933525907366522490000016164638467264175788_"  style="overflow:visible;fill:url(#SVGID_00000067218127080752208590000010772811480811562429_);"/>
				<clipPath id="SVGID_00000097500575758116401040000005837281444046386315_">
					<use xlink:href="#SVGID_00000134933525907366522490000016164638467264175788_"  style="overflow:visible;"/>
				</clipPath>
				<g style="clip-path:url(#SVGID_00000097500575758116401040000005837281444046386315_);">
					<path class="st5" d="M2106.21,2543.04c-1.08,0-1.96-0.87-1.97-1.95c-0.01-1.09,0.87-1.97,1.95-1.98
						c83.66-0.53,163.53-18.53,237.41-53.52c69.96-33.13,142.29-67.39,180.07-139.89c28.54-54.77,20.12-98.11,9.47-152.97
						c-10.4-53.56-23.35-120.22-2.8-218.1c11.73-55.89,26.33-125.45,81.95-187.15c32.41-35.97,61.76-49.82,87.65-62.04
						c26.98-12.73,48.28-22.79,63.2-53.84c24.4-50.78,16.31-97.39,6.95-151.36c-5.79-33.41-11.79-67.96-11.35-108.26
						c1.22-113.43,66.29-229.03,193.43-343.58c0.8-0.72,2.05-0.67,2.78,0.14c0.72,0.81,0.66,2.05-0.15,2.78
						c-126.29,113.78-190.93,228.41-192.13,340.7c-0.43,39.93,5.53,74.3,11.3,107.54c9.47,54.64,17.66,101.82-7.29,153.74
						c-15.52,32.31-38.48,43.15-65.07,55.7c-25.56,12.06-54.53,25.74-86.41,61.12c-54.9,60.92-69.38,129.9-81.01,185.33
						c-20.38,97.1-7.52,163.33,2.81,216.54c10.8,55.62,19.33,99.54-9.84,155.54c-38.38,73.67-111.32,108.21-181.86,141.62
						c-74.4,35.23-154.83,53.37-239.07,53.9C2106.22,2543.04,2106.21,2543.04,2106.21,2543.04z"/>
					<path class="st5" d="M2589.7,1821.45c-0.83,0-1.6-0.53-1.87-1.36c-51.83-158.08-50.68-276.38-40.59-347.78
						c10.96-77.52,34.59-118.21,34.83-118.61c0.56-0.93,1.77-1.24,2.69-0.69c0.93,0.55,1.25,1.76,0.69,2.69
						c-0.94,1.59-92.52,162.33,6.11,463.17c0.34,1.03-0.22,2.14-1.26,2.48C2590.11,1821.41,2589.9,1821.45,2589.7,1821.45z"/>
					<path class="st5" d="M2521.72,2057.21c-0.95,0-1.78-0.69-1.94-1.65c-0.18-1.07,0.55-2.08,1.63-2.25
						c196.96-31.85,302.48-133.35,356.31-212.89c58.37-86.24,70.3-166,70.42-166.8c0.15-1.08,1.12-1.83,2.22-1.67
						c1.07,0.15,1.82,1.15,1.67,2.22c-0.11,0.8-12.13,81.32-70.95,168.29c-54.27,80.25-160.61,182.64-359.05,214.72
						C2521.93,2057.2,2521.83,2057.21,2521.72,2057.21z"/>
					<path class="st5" d="M2422.08,2454.05c-0.52,0-1.04-0.21-1.42-0.61c-131.52-138.19-165.26-270.63-170.4-357.41
						c-5.58-94.11,20.39-156.42,20.65-157.03c0.43-1,1.58-1.46,2.58-1.04c1,0.43,1.47,1.58,1.04,2.58
						c-0.26,0.61-25.9,62.23-20.33,155.49c5.14,86.06,38.69,217.46,169.31,354.7c0.75,0.79,0.72,2.03-0.07,2.78
						C2423.06,2453.87,2422.57,2454.05,2422.08,2454.05z"/>
					<path class="st5" d="M2764.7,1394.9c-0.84,0-1.62-0.54-1.88-1.38c-0.32-1.04,0.26-2.14,1.29-2.46
						c144.7-44.94,213.75-139.17,246.2-210.3c35.2-77.17,36.16-144.6,36.16-145.27c0.01-1.08,0.89-1.95,1.97-1.95c0,0,0.01,0,0.02,0
						c1.08,0.01,1.96,0.9,1.95,1.98c-0.01,0.68-0.95,68.81-36.45,146.72c-32.77,71.92-102.51,167.18-248.68,212.58
						C2765.09,1394.87,2764.9,1394.9,2764.7,1394.9z"/>
				</g>
			</g>
		</g>
		<g>
			<g>
				
					<linearGradient id="SVGID_00000109720980453428849830000017420804928326717582_" gradientUnits="userSpaceOnUse" x1="1728.5007" y1="1002.5711" x2="2370.8679" y2="2663.4282">
					<stop  offset="0" style="stop-color:#311944"/>
					<stop  offset="1" style="stop-color:#893976"/>
				</linearGradient>
				<path style="fill:url(#SVGID_00000109720980453428849830000017420804928326717582_);" d="M2184.03,2362.03
					c-109.4,4.05-198.69-79.42-198.69-186.48V918l291.64,2.13c16.39,0.12,32.1-6.49,43.48-18.28l12-12.44l-739.61-785.2v1124.46
					c0,11.82-10.02,21.36-22.4,21.32h0c-8.92-0.03-16.87-5.16-20.55-12.95c-20.84-44.15-68.33-74.63-123.12-72.6
					c-66.94,2.47-121.27,54.49-123.37,118.29c-2.29,69.8,56.67,126.97,129.41,126.84c52.21-0.09,96.99-29.69,117.06-72.11
					c3.68-7.78,11.63-12.89,20.56-12.88h0c12.37,0.01,22.4,9.61,22.4,21.43v942.67c0,222.2,187.2,460.8,414.89,449.5l918.28-357.01
					l-9.97-15.22c-12.31-18.8-33.57-29.79-56.03-28.95L2184.03,2362.03z"/>
				
					<linearGradient id="SVGID_00000159461603911980792500000010223746067343473808_" gradientUnits="userSpaceOnUse" x1="2198.2876" y1="1532.8483" x2="2807.8472" y2="3108.8806" gradientTransform="matrix(-1 0 0 1 3446.5671 0)">
					<stop  offset="0" style="stop-color:#311944"/>
					<stop  offset="1" style="stop-color:#893976"/>
				</linearGradient>
				<path style="fill:url(#SVGID_00000159461603911980792500000010223746067343473808_);" d="M978.48,2406.67
					c117.73-4.36,212.5-97,212.5-206.95V912.19L890,909.99c-15.6-0.11-23.52-18.82-12.74-30.1l274.03-286.83l442.8,867.44
					c0,237.71,10.02,247.15,22.36,246.97l0,0c8.88-0.13,16.8-5.33,20.45-13.13c20.68-44.17,67.62-74.73,121.4-72.99
					c65.18,2.12,117.65,52.88,119.67,115.44c2.2,68.43-54.73,125.71-125.58,127.1c-51.28,1.01-95.54-27.52-115.47-69.43
					c-3.66-7.69-11.58-12.67-20.47-12.52l0,0c-12.35,0.21-22.36,9.96-22.36,21.78v484.9c0,222.19-1161.38,574.71-1398.58,586.48
					l-17.3-26.41c-8.16-12.46-12.51-27.04-12.51-41.94v-323.98c0-25.68,20.32-46.77,45.98-47.72L978.48,2406.67z"/>
				
					<linearGradient id="SVGID_00000115501955740372671410000012382237645481725313_" gradientUnits="userSpaceOnUse" x1="1523.5999" y1="1333.9929" x2="2188.5352" y2="3053.2007">
					<stop  offset="0" style="stop-color:#311944"/>
					<stop  offset="1" style="stop-color:#893976"/>
				</linearGradient>
				<path style="fill:url(#SVGID_00000115501955740372671410000012382237645481725313_);" d="M1549.89,1337.46
					c3.68-7.78,11.63-12.89,20.56-12.88c12.37,0.01,22.4,9.61,22.4,21.43v210.31c17.09-14.61,32.29-31.29,45.24-49.57
					c56.08-79.14,73.05-182.97,52.3-275.64c-10.15-45.33-29.93-89.3-60.89-125.47c-10.99-12.83-23.29-24.4-36.65-34.64v157.66
					c0,11.82-10.02,21.36-22.4,21.32h0c-8.92-0.03-16.87-5.16-20.55-12.95c-20.83-44.15-68.33-74.63-123.12-72.6
					c-66.94,2.47-121.27,54.49-123.37,118.29c-2.29,69.8,56.67,126.97,129.41,126.85
					C1485.03,1409.48,1529.81,1379.87,1549.89,1337.46z"/>
			</g>
			<g>
				
					<linearGradient id="SVGID_00000122696082934140865390000001669387383226450065_" gradientUnits="userSpaceOnUse" x1="3306.8477" y1="2817.6824" x2="-192.5502" y2="-327.9629">
					<stop  offset="0" style="stop-color:#AA80F9"/>
					<stop  offset="0.9964" style="stop-color:#6165D7"/>
				</linearGradient>
				<path style="fill:url(#SVGID_00000122696082934140865390000001669387383226450065_);" d="M2213.85,2407.55
					c-109.4,4.05-198.69-79.42-198.69-186.47V887.09l317.3,2.32l-709.8-823.23v1131.57c0,11.82-10.02,21.36-22.4,21.32h0
					c-8.92-0.03-16.87-5.16-20.55-12.95c-20.84-44.15-68.33-74.63-123.12-72.6c-66.94,2.47-121.27,54.49-123.37,118.29
					c-2.29,69.8,56.67,126.97,129.41,126.84c52.21-0.09,96.99-29.69,117.06-72.11c3.68-7.78,11.63-12.89,20.56-12.88l0,0
					c12.37,0.01,22.4,9.61,22.4,21.43v1019.1c0,222.2,187.2,460.8,414.89,449.5l888.47-44.09v-358.43L2213.85,2407.55z"/>
				
					<linearGradient id="SVGID_00000158723303994656007890000005318746831172577212_" gradientUnits="userSpaceOnUse" x1="2005.7614" y1="1139.1313" x2="2778.4485" y2="3136.9341" gradientTransform="matrix(-1 0 0 1 3446.5671 0)">
					<stop  offset="0" style="stop-color:#FCB148"/>
					<stop  offset="0.0521" style="stop-color:#FDBA46"/>
					<stop  offset="0.1424" style="stop-color:#FFC244"/>
					<stop  offset="0.3183" style="stop-color:#FFC444"/>
					<stop  offset="0.4849" style="stop-color:#FDB946"/>
					<stop  offset="0.7754" style="stop-color:#F99C4D"/>
					<stop  offset="0.8658" style="stop-color:#F8924F"/>
					<stop  offset="1" style="stop-color:#F8924F"/>
				</linearGradient>
				<path style="fill:url(#SVGID_00000158723303994656007890000005318746831172577212_);" d="M1008.3,2452.19
					c117.73-4.36,212.5-97,212.5-206.95V881.28l-342.2-2.5l745.3-812.56v1665.7c0,11.82,10.02,21.26,22.36,21.08l0,0
					c8.88-0.13,16.8-5.33,20.45-13.13c20.68-44.17,67.62-74.73,121.4-72.99c65.18,2.12,117.65,52.88,119.67,115.44
					c2.2,68.43-54.73,125.71-125.58,127.1c-51.28,1.01-95.54-27.52-115.47-69.43c-3.66-7.69-11.58-12.67-20.47-12.52l0,0
					c-12.35,0.21-22.36,9.96-22.36,21.78v484.9c0,222.19-189.57,479.48-426.76,491.25l-1001.63,49.71v-392.83L1008.3,2452.19z"/>
				
					<linearGradient id="SVGID_00000177446099876002584200000004915030199351644581_" gradientUnits="userSpaceOnUse" x1="3401.6936" y1="2712.1731" x2="-97.6949" y2="-433.4637">
					<stop  offset="0" style="stop-color:#AA80F9"/>
					<stop  offset="0.9964" style="stop-color:#6165D7"/>
				</linearGradient>
				<path style="fill:url(#SVGID_00000177446099876002584200000004915030199351644581_);" d="M1630.7,935.73
					c-4.3,4.67-10.6,7.62-17.64,7.6h-0.01c-9.34-0.03-17.68-5.41-21.53-13.57c-21.83-46.27-71.61-78.21-129.02-76.08
					c-70.15,2.59-127.08,57.1-129.28,123.96c-2.4,73.14,59.39,133.05,135.61,132.92c54.71-0.09,101.64-31.12,122.67-75.56
					c3.86-8.15,12.19-13.5,21.55-13.49c7.04,0.01,13.34,2.99,17.64,7.68V935.73z"/>
			</g>
		</g>
		<g>
			
				<linearGradient id="SVGID_00000170979412578605122700000014151231104026213553_" gradientUnits="userSpaceOnUse" x1="2114.4744" y1="2580.9739" x2="2255.4431" y2="3089.687" gradientTransform="matrix(-1 0 0 1 2980.8477 0)">
				<stop  offset="0" style="stop-color:#311944"/>
				<stop  offset="1" style="stop-color:#893976"/>
			</linearGradient>
			<path style="fill:url(#SVGID_00000170979412578605122700000014151231104026213553_);" d="M727.46,2869.35
				c0,0-6.72,27.25-6.94,37.12c-0.21,9.87,108.42,23.63,110.11,16.36c1.69-7.27-16.5-20.51-29.62-25.72
				c-13.13-5.21-51.64-19.39-51.64-19.39L727.46,2869.35z"/>
			
				<linearGradient id="SVGID_00000164499233915464015940000017990625964021200318_" gradientUnits="userSpaceOnUse" x1="2239.9373" y1="2940.6382" x2="2241.9805" y2="2769.0237" gradientTransform="matrix(-1 0 0 1 2980.8477 0)">
				<stop  offset="0" style="stop-color:#FFC444"/>
				<stop  offset="0.9964" style="stop-color:#F36F56"/>
			</linearGradient>
			<path style="fill:url(#SVGID_00000164499233915464015940000017990625964021200318_);" d="M756.14,2843.95l-6.23,34.05
				c0,0-13.34,7.35-23.98,0l-2.59-37.81L756.14,2843.95z"/>
			
				<linearGradient id="SVGID_00000085230641005751015770000014089480092825099697_" gradientUnits="userSpaceOnUse" x1="2290.9648" y1="2532.0645" x2="2431.9348" y2="3040.782" gradientTransform="matrix(-1 0 0 1 2980.8477 0)">
				<stop  offset="0" style="stop-color:#311944"/>
				<stop  offset="1" style="stop-color:#893976"/>
			</linearGradient>
			<path style="fill:url(#SVGID_00000085230641005751015770000014089480092825099697_);" d="M529.34,2898.52
				c0,0-6.72,27.25-6.94,37.12c-0.21,9.87,108.42,23.63,110.11,16.36c1.69-7.27-16.5-20.51-29.62-25.72
				c-13.13-5.21-51.64-19.39-51.64-19.39L529.34,2898.52z"/>
			
				<linearGradient id="SVGID_00000106141187868665645800000004962333446232488383_" gradientUnits="userSpaceOnUse" x1="2438.3818" y1="2943.0022" x2="2440.425" y2="2771.3848" gradientTransform="matrix(-1 0 0 1 2980.8477 0)">
				<stop  offset="0" style="stop-color:#FFC444"/>
				<stop  offset="0.9964" style="stop-color:#F36F56"/>
			</linearGradient>
			<path style="fill:url(#SVGID_00000106141187868665645800000004962333446232488383_);" d="M558.01,2873.12l-6.23,34.05
				c0,0-13.34,7.36-23.98,0l-2.59-37.81L558.01,2873.12z"/>
			
				<linearGradient id="SVGID_00000149377305644390693840000009680465113823228295_" gradientUnits="userSpaceOnUse" x1="2141.0146" y1="2388.7039" x2="2323.7358" y2="2388.7039" gradientTransform="matrix(-1 0 0 1 2980.8477 0)">
				<stop  offset="0" style="stop-color:#444B8C"/>
				<stop  offset="0.9964" style="stop-color:#26264F"/>
			</linearGradient>
			<path style="fill:url(#SVGID_00000149377305644390693840000009680465113823228295_);" d="M808.16,1946.16
				c10.56,26.56,21.11,53.12,31.67,79.68c-1.55,146.63-9.22,305.59-26.04,474.91c-12.52,125.97-28.84,244.94-47.51,356.35
				c-17.03-2.15-34.05-4.31-51.08-6.46c-20.78-51.02-44-127.66-39.33-219.59c4.87-95.89,34.89-106.27,40.39-198.02
				c7.13-118.91-40.12-154.58-55.2-299.51c-5.77-55.43-6.88-127.31,8.17-213.2C715.55,1928.93,761.85,1937.55,808.16,1946.16z"/>
			
				<linearGradient id="SVGID_00000173867248159490232580000006847993670167245500_" gradientUnits="userSpaceOnUse" x1="2141.0159" y1="2388.7039" x2="2323.7363" y2="2388.7039" gradientTransform="matrix(-1 0 0 1 2980.8477 0)">
				<stop  offset="0" style="stop-color:#444B8C"/>
				<stop  offset="0.9964" style="stop-color:#26264F"/>
			</linearGradient>
			<path style="opacity:0.3;fill:url(#SVGID_00000173867248159490232580000006847993670167245500_);" d="M669.24,1920.31
				c25.01,4.65,50.02,9.3,75.03,13.96c39.07,82.64,45.15,165.89,34.27,201.62c-15.39,50.56-46.53,64.66-49.03,116.45
				c-2.48,51.25,26.58,66.92,40.86,128.71c9.88,42.78,3.32,80.86-10.22,155.27c-27.26,149.89-67.45,193.18-40.86,245.17
				c7.56,14.77,21.86,32.79,51.49,48.05c-1.49,9.21-2.98,18.44-4.5,27.55c-17.03-2.15-34.05-4.31-51.08-6.46
				c-20.78-51.03-44-127.66-39.33-219.59c4.87-95.89,34.89-106.27,40.39-198.02c7.13-118.91-40.12-154.58-55.2-299.51
				C655.3,2078.09,654.18,2006.21,669.24,1920.31z"/>
			
				<linearGradient id="SVGID_00000030486535287039870510000007862625611774127249_" gradientUnits="userSpaceOnUse" x1="2244.1746" y1="2414.8079" x2="2521.543" y2="2414.8079" gradientTransform="matrix(-1 0 0 1 2980.8477 0)">
				<stop  offset="0" style="stop-color:#444B8C"/>
				<stop  offset="0.9964" style="stop-color:#26264F"/>
			</linearGradient>
			<path style="fill:url(#SVGID_00000030486535287039870510000007862625611774127249_);" d="M736.67,1986.72
				c-34,127.11-65.96,263.51-94,408.64c-33.85,175.23-57.72,341.07-74.25,495.49c-18.8-0.97-37.6-1.95-56.4-2.92
				c-62.19-152.13-58.76-251.63-42.94-315.31c6.1-24.54,21.16-72.41,29.55-145.09c5.84-50.66,5.7-89.58,5.38-136.39
				c-0.71-102.62-9.7-125.72-5-203.8c4.41-73.27,7.07-110.31,29.69-130.24C588.28,1904.61,726.22,1980.82,736.67,1986.72z"/>
			
				<linearGradient id="SVGID_00000001624728243663290080000007672136315296252086_" gradientUnits="userSpaceOnUse" x1="1596.8605" y1="1646.7476" x2="1768.4799" y2="1821.4314" gradientTransform="matrix(-1 0 0 1 2980.8477 0)">
				<stop  offset="0" style="stop-color:#311944"/>
				<stop  offset="1" style="stop-color:#893976"/>
			</linearGradient>
			<path style="fill:url(#SVGID_00000001624728243663290080000007672136315296252086_);" d="M1282.46,1691.41
				c0,0,41.3-3.54,47.27-10.24c5.97-6.69,15.05-17.42,15.95-23.56c0.9-6.14,8.87,3.03,1.64,16.34
				c-7.23,13.31,13.29,10.49,16.49,10.17c7.36-0.74,35.46-1.56,34.65,0.18c-0.81,1.74,3.34,9.42-16.61,18.47
				c-17.47,7.91-38.26,2.76-49.61,3.31c-11.35,0.54-11.35,0.54-11.35,0.54l-30.11,2.3L1282.46,1691.41z"/>
			<path class="st2" d="M1306.67,1672.12c1.82,13.77,3.64,27.53,5.46,41.3c-27.35,22.82-87.83,66.55-171.97,73.11
				c-148.33,11.57-295.42-98.2-322.8-221.67c-13.56-61.15-2.48-146.94,35.52-160.74c10.55-3.83,26.4-3.29,59.07,18.66
				c87.19,58.57,94.61,135.49,142.77,187.52C1089.38,1647.75,1157.54,1685.69,1306.67,1672.12z"/>
			<path class="st2" d="M852.09,2053.15c20.36-28.38,0.09-58.95-0.52-115.85c-0.69-64.49,24.83-73.18,57.72-177.33
				c21.88-69.27,42.88-135.77,30.65-216.56c-5.86-38.72-15.8-104.39-66.66-139.81c-26.24-18.27-63.96-19.68-138.33-21.74
				c-91.96-2.55-137.94-3.83-173.53,11.42c-5.21,2.23-113.63,50.42-128.16,141.95c-14.79,93.16,86.29,113.95,89.89,240.06
				c1.62,56.61-16.2,142.05-27.75,197.47c-11.09,53.21-16.86,66.6-7.56,83.73c22.42,41.28,101.6,36.37,259.95,26.56
				C809.91,2079.2,836.9,2074.33,852.09,2053.15z"/>
			
				<linearGradient id="SVGID_00000068655662267746008550000011792603165146767551_" gradientUnits="userSpaceOnUse" x1="2801.6467" y1="2447.7202" x2="2182.5979" y2="1558.9867" gradientTransform="matrix(-1 0 0 1 2980.8477 0)">
				<stop  offset="0" style="stop-color:#AA80F9"/>
				<stop  offset="0.9964" style="stop-color:#6165D7"/>
			</linearGradient>
			<path style="opacity:0.3;fill:url(#SVGID_00000068655662267746008550000011792603165146767551_);" d="M635.53,1764.06
				c-8.57,23.84-33.84,40.13-55.16,98.07c-4.6,12.51-37.39,101.59-6.13,126.67c18.06,14.48,37.17-8.69,83.76-8.18
				c80.75,0.88,113.6,71.44,167.53,57.21c9.36-2.47,21.92-8.33,35.17-23.03c1.26,14.31-0.13,26.54-8.61,38.36
				c-15.19,21.18-42.18,26.05-104.3,29.9c-158.35,9.81-237.52,14.72-259.95-26.56c-9.3-17.12-3.53-30.51,7.56-83.73
				c11.55-55.42,29.37-140.86,27.75-197.47c-3.6-126.11-104.69-146.89-89.89-240.06c3.95-24.91,14.96-46.48,28.85-64.92
				C587.42,1533.1,662.47,1689.15,635.53,1764.06z"/>
			
				<linearGradient id="SVGID_00000128442906473406625990000003540507796491591331_" gradientUnits="userSpaceOnUse" x1="2424.6812" y1="1954.7467" x2="2524.5337" y2="1954.7467" gradientTransform="matrix(-1 0 0 1 2980.8477 0)">
				<stop  offset="0" style="stop-color:#311944"/>
				<stop  offset="1" style="stop-color:#893976"/>
			</linearGradient>
			<path style="fill:url(#SVGID_00000128442906473406625990000003540507796491591331_);" d="M457.16,1935.36l24.59,18.62
				c5.08-5,16.72-14.98,33.84-17.33c19.28-2.65,40.55,5.07,40.58,11.16c0.02,4.88-13.62,8.7-15.73,9.29
				c-17.02,4.78-28.88-1.27-36.1,4.84c-2.55,2.16-5.85,6.3-12.95,9.8c-1.86,0.92-3.8,1.71-4.82,2.02
				c-11.38,3.41-28.77-17.32-30.26-19.13L457.16,1935.36z"/>
			<path class="st2" d="M560.95,1601.63c22.34-43.39,40.84-111.09,19.41-215.54c-201.25,61.24-315.35,235.5-288.07,383.08
				c22.48,121.66,134.35,189,159.36,203.29c7.15-13.28,14.3-26.56,21.45-39.84c-27.43-35.95-57.4-88.27-48.06-144.48
				C437.98,1710.21,515.72,1689.48,560.95,1601.63z"/>
			
				<linearGradient id="SVGID_00000103985583269578251500000015649184219077745338_" gradientUnits="userSpaceOnUse" x1="-194.9188" y1="1395.816" x2="-194.9188" y2="1218.8344" gradientTransform="matrix(-0.827 0.5622 0.5622 0.827 -165.1191 413.4557)">
				<stop  offset="0" style="stop-color:#311944"/>
				<stop  offset="1" style="stop-color:#893976"/>
			</linearGradient>
			<path style="fill:url(#SVGID_00000103985583269578251500000015649184219077745338_);" d="M737.56,1289.12
				c0,0-4.27,34-16.92,58.71c-11.42,22.33-62.94,32.82-73.56,37.15c-10.62,4.34,17.5,21.76,46.72,27.08
				c29.21,5.32,113.86,5.37,129.92-4.58c16.06-9.95-11.36-11.3-31.76-20.7c-20.4-9.4-29.26-51.49-24.06-69.85
				C773.11,1298.56,737.56,1289.12,737.56,1289.12z"/>
			
				<linearGradient id="SVGID_00000053510612497633223080000000363924330972854717_" gradientUnits="userSpaceOnUse" x1="2280.0332" y1="1400.9718" x2="2206.0107" y2="1212.9684" gradientTransform="matrix(-1 0 0 1 2980.8477 0)">
				<stop  offset="0" style="stop-color:#444B8C"/>
				<stop  offset="0.9964" style="stop-color:#3E4177"/>
			</linearGradient>
			<path style="fill:url(#SVGID_00000053510612497633223080000000363924330972854717_);" d="M785.14,1280.48
				c16.49-13.79,18.76-15.37,20.84-20.43c8.35-20.3-5.52-50.12-26.15-58.84c-1.07-0.45-14.92-6.14-20.84-0.41
				c-5.03,4.87,1.17,12.64-2.86,22.48c-3.78,9.21-12.02,9.26-28.19,20.43c-13.32,9.2-21.6,14.92-24.11,23.7
				c-5.17,18.1,14.96,46.54,34.73,47.4C745.66,1315.11,747.88,1311.64,785.14,1280.48z"/>
			<g>
				
					<linearGradient id="SVGID_00000132804990793382188760000009545416973385169291_" gradientUnits="userSpaceOnUse" x1="713.0497" y1="1183.8248" x2="757.7451" y2="1290.6577">
					<stop  offset="0" style="stop-color:#311944"/>
					<stop  offset="1" style="stop-color:#893976"/>
				</linearGradient>
				<path style="fill:url(#SVGID_00000132804990793382188760000009545416973385169291_);" d="M740.26,1317.8
					c0,0,14.77,19.7,40.01,15.6c22.59-3.67,21.01-54.98,5.45-64.4c-5.19-3.14-15.04-3.71-22.72-0.74
					c-4.54,1.75-5.92,3.84-13.39,6.57c-6.89,2.51-8.96,1.92-10.91,3.92c-2.45,2.5-3.87,8.19,2.01,22.67
					c-4.76-3.98-10.13-5.16-13.65-3.06c-0.56,0.34-2.02,1.55-2.74,3.24C721.69,1307.72,727.73,1314.65,740.26,1317.8z"/>
			</g>
		</g>
		<g>
			<g>
				
					<linearGradient id="SVGID_00000037686629197358933900000012076499959898178741_" gradientUnits="userSpaceOnUse" x1="1560.676" y1="2945.2158" x2="1625.387" y2="2945.2158" gradientTransform="matrix(0.9987 -0.0516 0.0516 0.9987 687.7538 4.1278)">
					<stop  offset="0" style="stop-color:#AA80F9"/>
					<stop  offset="0.9964" style="stop-color:#6165D7"/>
				</linearGradient>
				<path style="fill:url(#SVGID_00000037686629197358933900000012076499959898178741_);" d="M2448.96,2836.38
					c4.4,6.47,9.75,16.13,12.78,28.73c1.33,5.52,1.97,10.62,2.23,15.09c-2.75,5.9-16.69,26.85-38.73,35.01
					c-13.64,5.05-38.39-3.23-15.11-23.54c23.28-20.32,26.52-24.83,12.28-64.92c-3.66-10.32-3.52-14.33-1.97-15.34
					C2424.05,2809.03,2437.77,2823.55,2448.96,2836.38z"/>
				
					<linearGradient id="SVGID_00000057142965614012234960000005276990280127595441_" gradientUnits="userSpaceOnUse" x1="1684.2332" y1="2964.033" x2="1748.9449" y2="2964.033" gradientTransform="matrix(0.9987 -0.0516 0.0516 0.9987 687.7538 4.1278)">
					<stop  offset="0" style="stop-color:#AA80F9"/>
					<stop  offset="0.9964" style="stop-color:#6165D7"/>
				</linearGradient>
				<path style="fill:url(#SVGID_00000057142965614012234960000005276990280127595441_);" d="M2573.32,2848.8
					c4.4,6.47,9.75,16.13,12.78,28.73c1.32,5.52,1.97,10.62,2.23,15.09c-2.75,5.89-16.69,26.85-38.73,35.01
					c-13.64,5.05-38.39-3.23-15.12-23.55c23.28-20.31,26.52-24.82,12.29-64.92c-3.66-10.32-3.52-14.33-1.97-15.34
					C2548.42,2821.45,2562.14,2835.97,2573.32,2848.8z"/>
				
					<linearGradient id="SVGID_00000183957603995037870920000007301373335166532770_" gradientUnits="userSpaceOnUse" x1="1454.8544" y1="2479.8955" x2="1848.262" y2="2479.8955" gradientTransform="matrix(0.9987 -0.0516 0.0516 0.9987 687.7538 4.1278)">
					<stop  offset="0" style="stop-color:#444B8C"/>
					<stop  offset="0.9964" style="stop-color:#26264F"/>
				</linearGradient>
				<path style="fill:url(#SVGID_00000183957603995037870920000007301373335166532770_);" d="M2617.67,1985.67
					c10.46,52.42,20.92,104.85,31.38,157.27c-17.26,50.52-33.03,105.47-45.96,164.67c-46.72,213.84-39.14,404.4-18.38,549.28
					c-11.06,6.13-22.11,12.26-33.17,18.39c-33.77-76.03-76.26-189.44-100.08-332.1c-28.15-168.55-17.47-301.43-25.27-301.63
					c-7.48-0.19-24.22,121.7-19.53,260.08c4.96,146.28,32.35,265.85,56.47,347.66c-13.93,3.1-27.85,6.19-41.78,9.29
					c-56.66-104.21-116.42-247.22-142.4-422.69c-18.04-121.85-39.95-283.8,36.04-454.25c7.59-17.02,34.81-55.16,39.83-64.53
					C2449.15,1931.84,2523.34,1970.94,2617.67,1985.67z"/>
				
					<linearGradient id="SVGID_00000065070357979132633890000007556895149533174718_" gradientUnits="userSpaceOnUse" x1="1518.8291" y1="2331.4829" x2="1898.8453" y2="2331.4829" gradientTransform="matrix(0.9976 0.069 -0.069 0.9976 897.8127 -56.3506)">
					<stop  offset="0" style="stop-color:#444B8C"/>
					<stop  offset="0.9964" style="stop-color:#26264F"/>
				</linearGradient>
				<path style="opacity:0.25;fill:url(#SVGID_00000065070357979132633890000007556895149533174718_);" d="M2603.08,2307.61
					c12.93-59.2,28.71-114.14,45.96-164.67c-10.46-52.42-20.92-104.85-31.38-157.27c-94.33-14.73-168.52-53.82-262.84-68.55
					c-5.03,9.37-32.25,47.5-39.83,64.52c-25.62,57.46-40.08,113.94-47.34,168.26c181.24-8.18,235,27.78,250.64,62.09
					c24.89,54.61-43.13,113.18-14.55,224.46c8.59,33.47,20.28,49.7,23.03,91.9c3.61,55.37-14.3,61.37-15.2,117.85
					c-0.99,61.8,19.52,112.51,36.35,154.13c10.46,25.87,21.17,46.55,29.14,60.81c2.55-1.41,5.1-2.83,7.66-4.24
					C2563.95,2712,2556.37,2521.45,2603.08,2307.61z"/>
			</g>
			
				<linearGradient id="SVGID_00000137125721828080056840000017352717950590198703_" gradientUnits="userSpaceOnUse" x1="2271.9214" y1="1711.8708" x2="1533.238" y2="1322.5968" gradientTransform="matrix(1 0 0 1 779.4005 0)">
				<stop  offset="0" style="stop-color:#311944"/>
				<stop  offset="1" style="stop-color:#6B3976"/>
			</linearGradient>
			<path style="fill:url(#SVGID_00000137125721828080056840000017352717950590198703_);" d="M2457.35,1256.62
				c6.59,7.13-0.93,18.4,1.26,56.34c1,17.35,3.55,31.73,5.78,41.9c1.29,9.27,2.71,17.85,4.23,25.4c1.11,5.54,2.14,9.85,3.42,14.42
				c2.38,8.48,5.4,16.81,8.97,24.78c0.24,0.53,0.03,1.14-0.47,1.42c-0.03,0.02-0.06,0.03-0.09,0.04c-0.56,0.25-1.21,0-1.46-0.56
				c-3.62-8.07-6.67-16.51-9.09-25.09c-1.3-4.63-2.34-8.99-3.46-14.59c-0.8-3.98-1.57-8.26-2.31-12.75
				c0,12.03,1.11,25.21,7.16,42.33c18.37,51.96-19.36,91.32-51.82,96.11c-37.43,5.52-66-21.63-74.89-30.56
				c-35.84-36-48.59-99.41-23.57-149.34C2353.8,1261.07,2441.21,1239.14,2457.35,1256.62z"/>
			
				<linearGradient id="SVGID_00000102504804755217648430000004446691228019670434_" gradientUnits="userSpaceOnUse" x1="2263.49" y1="1727.8691" x2="1524.8093" y2="1338.5964" gradientTransform="matrix(1 0 0 1 779.4005 0)">
				<stop  offset="0" style="stop-color:#311944"/>
				<stop  offset="1" style="stop-color:#6B3976"/>
			</linearGradient>
			<path style="fill:url(#SVGID_00000102504804755217648430000004446691228019670434_);" d="M2367.6,1317.78
				c0.99-6.12,5.75-31.16,26.4-48.7c39.19-33.26,109.2-17.08,151.49,12.92c44.25,31.4,29.93,57.77,73.9,93.17
				c47.76,38.45,76.2,16.55,140.69,51.78c25.37,13.86,93.73,51.21,105.1,119.35c9.83,58.88-25.94,122.57-74.84,150.77
				c-83.73,48.29-200.93-10.31-259.47-69.31c-56.15-56.59-24.15-75.18-107.24-187.09
				C2393.58,1400.21,2360.19,1363.54,2367.6,1317.78z"/>
			<g>
				
					<linearGradient id="SVGID_00000168801670545952844020000016459530674972593563_" gradientUnits="userSpaceOnUse" x1="617.4254" y1="1619.0332" x2="734.707" y2="1619.0332" gradientTransform="matrix(0.9994 0.0335 -0.0335 0.9994 1360.938 162.3388)">
					<stop  offset="0" style="stop-color:#FFC444"/>
					<stop  offset="0.9964" style="stop-color:#F36F56"/>
				</linearGradient>
				<path style="fill:url(#SVGID_00000168801670545952844020000016459530674972593563_);" d="M1949.25,1819.92
					c7.34,1.07,17.59-4.8,25.43-10.29c5.51-3.85,19.38-7.01,19.38-7.01L1982.5,1785l-10.73,1.22c0,0-18.96-1.43-30.1,0.18
					c-11.14,1.61-17.65,6.93-18.04,18.4L1949.25,1819.92z"/>
				<path class="st2" d="M2303.74,1517.14c-56.47,74.01-34.32,113.58-72.99,174.7c-38.33,60.58-66.33-14.67-167.52,27.02
					c-38.43,15.83-67.93,33.87-87.1,46.85c0.46,4.17,1.1,8.64,2.01,13.36c0.61,3.2,1.6,7.87,3.54,14.85
					c1.87,6.71,5,16.94,10.05,29.97c30.08,16.56,83.51,39.34,144.72,26.99c11.14-2.25,18.92-4.28,30.4-8.98
					c38.57-15.79,99.16-25.16,158.21-105.61c44.6-60.75,51.23-65.25,59.61-94.2c20.72-71.55-3.1-157.36-33.84-162.48
					C2334.79,1476.93,2319.38,1496.64,2303.74,1517.14z"/>
			</g>
			<path class="st2" d="M2322.24,1497.18c-28.71,35.79-33.3,75.71-34.02,93.42c-2.24,55.08,23.66,97.13,29.87,108.24
				c29.34,52.49,31.85,161.67-81.84,409.12c14.24,9.57,67.79,85.74,85.14,44.75c23.66-55.88,117.29-441.51,35.48,12.46
				c-1.08,5.98,11.79,3.47,17.92,5.06c43.98,11.42,96.02,17.66,153.72,10.96c90.44-10.51,156.25-48.35,190.69-71.86
				c-30.71-55.1-64.69-130.47-85.59-224.05c-39.86-178.52-10.98-328.81,11.52-410.57c-29.95-16.42-124.27-63.2-227.12-34.27
				C2392.4,1447.66,2352.48,1459.49,2322.24,1497.18z"/>
			
				<linearGradient id="SVGID_00000040551388527504506880000007169852662274416058_" gradientUnits="userSpaceOnUse" x1="1613.1178" y1="1678.0018" x2="2222.2761" y2="2064.0027" gradientTransform="matrix(1 0 0 1 779.4005 0)">
				<stop  offset="0" style="stop-color:#FF9085"/>
				<stop  offset="1" style="stop-color:#FB6FBB"/>
			</linearGradient>
			<path style="opacity:0.3;fill:url(#SVGID_00000040551388527504506880000007169852662274416058_);" d="M2633.63,1885.29
				c-39.86-178.52-10.98-328.81,11.52-410.57c-29.95-16.42-124.26-63.2-227.12-34.27c-25.63,7.21-65.55,19.04-95.79,56.73
				c-22.86,28.49-30.41,59.57-32.9,80.01c0.77-0.21,1.83-0.5,3.09-0.81c63.58-15.59,143.45,28.58,174,75.03
				c50.99,77.51-39.84,154.58-23.95,284.14c8.59,70.04,47.69,149.86,150.54,232.87c57.56-16.2,100.57-41.6,126.19-59.09
				C2688.51,2054.23,2654.52,1978.87,2633.63,1885.29z"/>
			
				<linearGradient id="SVGID_00000043442778193819679090000010761589723241926786_" gradientUnits="userSpaceOnUse" x1="884.6766" y1="1601.2167" x2="896.4594" y2="1287.3596" gradientTransform="matrix(-0.9962 0.0867 0.0867 0.9962 3190.9175 -56.1428)">
				<stop  offset="0" style="stop-color:#FFC444"/>
				<stop  offset="0.9964" style="stop-color:#F36F56"/>
			</linearGradient>
			<path style="fill:url(#SVGID_00000043442778193819679090000010761589723241926786_);" d="M2435.78,1372.92
				c-7.26,19.6-12.6,43.74-0.86,58.34c7.15,8.89,17.9,13.15,28.5,17.11c25.04,9.36,35.59,3.41,41.03,10.1
				c11.98,14.72-11.06,78.03-58.3,88.22c-47.01,10.14-95.41-37.21-90.52-59.83c4.41-20.41,51.86-19.07,57.64-44.89
				c2.91-13-6.25-26.15-13.99-34.89l-5.55,1.07L2435.78,1372.92z"/>
			
				<linearGradient id="SVGID_00000168839194779868999450000001479394914997086650_" gradientUnits="userSpaceOnUse" x1="1666.2861" y1="1572.0045" x2="1675.9357" y2="1314.9724" gradientTransform="matrix(1 0 0 1 779.4005 0)">
				<stop  offset="0" style="stop-color:#FFC444"/>
				<stop  offset="0.9964" style="stop-color:#F36F56"/>
			</linearGradient>
			<path style="opacity:0.4;fill:url(#SVGID_00000168839194779868999450000001479394914997086650_);" d="M2504.45,1458.47
				c-5.44-6.69-16-0.74-41.03-10.1c-10.59-3.96-21.35-8.22-28.5-17.11c-11.74-14.6-6.4-38.73,0.86-58.33l-42.04,35.21l5.55-1.07
				c6.15,6.94,13.09,16.67,14.27,26.88c3.52,1.93,6.56,4.14,8.77,6.36c-4.84,14.1-5.75,25.93-5.79,33.52
				c-0.05,11.84-0.09,20.64,5.79,28.33c6.41,8.4,16.1,10.57,24.57,12.47c18.83,4.22,35.62,0.43,46.51-3.4
				C2506.86,1490.32,2511.18,1466.73,2504.45,1458.47z"/>
			
				<linearGradient id="SVGID_00000076582732860526745270000009791586305790484654_" gradientUnits="userSpaceOnUse" x1="623.0901" y1="1324.5685" x2="619.9125" y2="1580.5895" gradientTransform="matrix(-1 -4.100000e-03 -4.300000e-03 1.043 3030.6428 -31.7555)">
				<stop  offset="0" style="stop-color:#FFC444"/>
				<stop  offset="0.9964" style="stop-color:#F36F56"/>
			</linearGradient>
			<path style="fill:url(#SVGID_00000076582732860526745270000009791586305790484654_);" d="M2423.76,1392.97
				c0,0-2.39,24.01-26.16,24.13c-29.29,0.15-32.54-77.14-25.42-81.56c8.26-5.12,15.49,7.42,34.71,3.05
				c8.1-1.84,15.09-12.25,19.2-1.03c4.67,12.77,0.73,35.36,0.73,35.36s6.96-5.74,8.03,1.17
				C2436.23,1383.13,2429.45,1388.77,2423.76,1392.97z"/>
			
				<linearGradient id="SVGID_00000093157236047445754990000018112278219208227973_" gradientUnits="userSpaceOnUse" x1="2288.175" y1="1681.0242" x2="1549.4966" y2="1291.7526" gradientTransform="matrix(1 0 0 1 779.4005 0)">
				<stop  offset="0" style="stop-color:#311944"/>
				<stop  offset="1" style="stop-color:#6B3976"/>
			</linearGradient>
			<path style="fill:url(#SVGID_00000093157236047445754990000018112278219208227973_);" d="M2377.42,1308.98
				c-9.3,9.48-14.42,27.87-7.98,37.12c9.26,13.28,36.63-0.59,47.83,15.66c4.91,7.12,4.62,17.01,7.17,16.85
				c2.11-0.13,3.35-6.98,4.57-12.62c6.69-31.07,14.44-34.56,12.08-43.46C2436.29,1304.45,2396.51,1289.51,2377.42,1308.98z"/>
			<g>
				<path class="st38" d="M2912.65,1855.61l-519.58,209.21c-13.51,5.44-28.88-1.1-34.32-14.62l-117.56-295.22
					c-5.44-13.51,1.1-28.88,14.62-34.32l519.58-209.21c13.51-5.44,28.88,1.1,34.32,14.62l117.56,295.22
					C2932.71,1834.8,2926.17,1850.17,2912.65,1855.61z"/>
				
					<linearGradient id="SVGID_00000145758555871886025450000015933729387552175271_" gradientUnits="userSpaceOnUse" x1="2738.7224" y1="1433.6508" x2="2387.2397" y2="2301.8115">
					<stop  offset="0" style="stop-color:#FCB148"/>
					<stop  offset="0.0521" style="stop-color:#FDBA46"/>
					<stop  offset="0.1424" style="stop-color:#FFC244"/>
					<stop  offset="0.3183" style="stop-color:#FFC444"/>
					<stop  offset="0.4849" style="stop-color:#FDB946"/>
					<stop  offset="0.7754" style="stop-color:#F99C4D"/>
					<stop  offset="0.8658" style="stop-color:#F8924F"/>
					<stop  offset="1" style="stop-color:#F8924F"/>
				</linearGradient>
				<path style="fill:url(#SVGID_00000145758555871886025450000015933729387552175271_);" d="M2922.39,1858.68l-519.58,209.21
					c-13.51,5.44-28.88-1.1-34.32-14.62l-117.56-295.22c-5.44-13.51,1.1-28.88,14.62-34.32l519.58-209.21
					c13.51-5.44,28.88,1.1,34.32,14.62L2937,1824.36C2942.44,1837.87,2935.9,1853.24,2922.39,1858.68z"/>
				<g>
					
						<linearGradient id="SVGID_00000156566803254593364890000007145926300958885051_" gradientUnits="userSpaceOnUse" x1="2469.7141" y1="1808.0276" x2="2601.2703" y2="1808.0276">
						<stop  offset="0" style="stop-color:#FCB148"/>
						<stop  offset="0.0521" style="stop-color:#FDBA46"/>
						<stop  offset="0.1424" style="stop-color:#FFC244"/>
						<stop  offset="0.3183" style="stop-color:#FFC444"/>
						<stop  offset="0.4849" style="stop-color:#FDB946"/>
						<stop  offset="0.7754" style="stop-color:#F99C4D"/>
						<stop  offset="0.8658" style="stop-color:#F8924F"/>
						<stop  offset="1" style="stop-color:#F8924F"/>
					</linearGradient>
					<path style="fill:url(#SVGID_00000156566803254593364890000007145926300958885051_);" d="M2477.94,1789.65
						c28.19,0.5,53.72,24.07,57,52.54c0.92,7.99-0.06,15.51-2.49,22.23l62.7,28.99c5.36-15.21,7.4-32.25,5.32-50.27
						c-7.49-65.05-65.72-119.12-130.26-120.51c-0.17,0-0.33,0-0.5,0l7.73,67.03C2477.61,1789.67,2477.77,1789.65,2477.94,1789.65z"
						/>
					
						<linearGradient id="SVGID_00000090290995744375978080000000508780814662289547_" gradientUnits="userSpaceOnUse" x1="2364.9033" y1="1841.4218" x2="2595.1484" y2="1841.4218">
						<stop  offset="0" style="stop-color:#AA80F9"/>
						<stop  offset="0.9964" style="stop-color:#6165D7"/>
					</linearGradient>
					<path style="fill:url(#SVGID_00000090290995744375978080000000508780814662289547_);" d="M2532.45,1864.43
						c-6.23,17.23-22.29,29.05-42.56,28.82c-28.26-0.32-54-23.89-57.31-52.54c-3.29-28.48,16.85-51.26,44.86-51.04l-7.73-67.03
						c-64.78-1.13-111.61,51.29-104,117.1c7.62,65.96,67,120,131.91,120.49c46.61,0.35,83.52-27.06,97.53-66.8L2532.45,1864.43z"/>
				</g>
				<g>
					
						<linearGradient id="SVGID_00000062181434628188978600000009367014231314922431_" gradientUnits="userSpaceOnUse" x1="2621.7236" y1="1724.811" x2="2850.7346" y2="1724.811">
						<stop  offset="0" style="stop-color:#FCB148"/>
						<stop  offset="0.0521" style="stop-color:#FDBA46"/>
						<stop  offset="0.1424" style="stop-color:#FFC244"/>
						<stop  offset="0.3183" style="stop-color:#FFC444"/>
						<stop  offset="0.4849" style="stop-color:#FDB946"/>
						<stop  offset="0.7754" style="stop-color:#F99C4D"/>
						<stop  offset="0.8658" style="stop-color:#F8924F"/>
						<stop  offset="1" style="stop-color:#F8924F"/>
					</linearGradient>
					<path style="fill:url(#SVGID_00000062181434628188978600000009367014231314922431_);" d="M2849.53,1692.49l-216.69,88.72
						c-1.03,0.42-2.2-0.08-2.62-1.12l-8.35-20.65c-0.42-1.04,0.07-2.22,1.1-2.64l216.83-88.41c1-0.41,2.14,0.09,2.56,1.12
						l8.23,20.38C2851,1690.92,2850.53,1692.08,2849.53,1692.49z"/>
				</g>
				<g>
					
						<linearGradient id="SVGID_00000060031119179448331840000010535078653951555225_" gradientUnits="userSpaceOnUse" x1="2603.4468" y1="1680.9459" x2="2832.4578" y2="1680.9459">
						<stop  offset="0" style="stop-color:#FCB148"/>
						<stop  offset="0.0521" style="stop-color:#FDBA46"/>
						<stop  offset="0.1424" style="stop-color:#FFC244"/>
						<stop  offset="0.3183" style="stop-color:#FFC444"/>
						<stop  offset="0.4849" style="stop-color:#FDB946"/>
						<stop  offset="0.7754" style="stop-color:#F99C4D"/>
						<stop  offset="0.8658" style="stop-color:#F8924F"/>
						<stop  offset="1" style="stop-color:#F8924F"/>
					</linearGradient>
					<path style="fill:url(#SVGID_00000060031119179448331840000010535078653951555225_);" d="M2831.25,1648.62l-216.69,88.72
						c-1.03,0.42-2.2-0.08-2.62-1.12l-8.35-20.65c-0.42-1.04,0.07-2.22,1.1-2.64l216.83-88.4c1-0.41,2.14,0.09,2.56,1.12l8.23,20.37
						C2832.72,1647.05,2832.25,1648.22,2831.25,1648.62z"/>
				</g>
				<g>
					
						<linearGradient id="SVGID_00000072277372385284746410000018374196009976982922_" gradientUnits="userSpaceOnUse" x1="2657.3645" y1="1815.2833" x2="2886.3752" y2="1815.2833">
						<stop  offset="0" style="stop-color:#FCB148"/>
						<stop  offset="0.0521" style="stop-color:#FDBA46"/>
						<stop  offset="0.1424" style="stop-color:#FFC244"/>
						<stop  offset="0.3183" style="stop-color:#FFC444"/>
						<stop  offset="0.4849" style="stop-color:#FDB946"/>
						<stop  offset="0.7754" style="stop-color:#F99C4D"/>
						<stop  offset="0.8658" style="stop-color:#F8924F"/>
						<stop  offset="1" style="stop-color:#F8924F"/>
					</linearGradient>
					<path style="fill:url(#SVGID_00000072277372385284746410000018374196009976982922_);" d="M2885.17,1782.96l-216.69,88.72
						c-1.02,0.42-2.2-0.08-2.62-1.12l-8.35-20.65c-0.42-1.04,0.07-2.22,1.1-2.64l216.83-88.4c1-0.41,2.14,0.09,2.56,1.12l8.23,20.37
						C2886.64,1781.39,2886.17,1782.55,2885.17,1782.96z"/>
				</g>
				<g>
					
						<linearGradient id="SVGID_00000150063972886685799140000016794239972976932994_" gradientUnits="userSpaceOnUse" x1="2639.0869" y1="1771.4178" x2="2868.0979" y2="1771.4178">
						<stop  offset="0" style="stop-color:#FCB148"/>
						<stop  offset="0.0521" style="stop-color:#FDBA46"/>
						<stop  offset="0.1424" style="stop-color:#FFC244"/>
						<stop  offset="0.3183" style="stop-color:#FFC444"/>
						<stop  offset="0.4849" style="stop-color:#FDB946"/>
						<stop  offset="0.7754" style="stop-color:#F99C4D"/>
						<stop  offset="0.8658" style="stop-color:#F8924F"/>
						<stop  offset="1" style="stop-color:#F8924F"/>
					</linearGradient>
					<path style="fill:url(#SVGID_00000150063972886685799140000016794239972976932994_);" d="M2866.89,1739.1l-216.69,88.72
						c-1.02,0.42-2.2-0.08-2.62-1.12l-8.35-20.65c-0.42-1.04,0.07-2.22,1.1-2.64l216.83-88.41c1-0.41,2.15,0.09,2.56,1.12
						l8.23,20.37C2868.36,1737.53,2867.89,1738.69,2866.89,1739.1z"/>
				</g>
			</g>
			<g>
				
					<linearGradient id="SVGID_00000138539453755282559220000004003654441485413540_" gradientUnits="userSpaceOnUse" x1="439.7479" y1="1865.577" x2="568.3304" y2="1865.577" gradientTransform="matrix(0.7945 -0.6073 0.6073 0.7945 1109.1151 791.1608)">
					<stop  offset="0" style="stop-color:#FFC444"/>
					<stop  offset="0.9964" style="stop-color:#F36F56"/>
				</linearGradient>
				<path style="fill:url(#SVGID_00000138539453755282559220000004003654441485413540_);" d="M2630.12,1951.86l-8.25,8.49
					c0,0-17.07,11.96-25.41,21.06c-8.33,9.1-10.16,18.14-2.52,28.14c7.64,10,20.78,1.9,32.24-4.98
					c6.97-4.19,11.58-16.29,14.43-26.39c2-7.1,11.57-19.41,11.57-19.41L2630.12,1951.86z"/>
				<path class="st2" d="M2522.78,1501.41c21.05-44.85,176.97-8.3,291.35,72.4c36.3,25.61,40.09,106.84,27.37,169.37
					c-14.85,73.01-57.11,122.02-78.26,146.56c-37.28,43.25-75.79,68.14-100.26,81.56c-7.9-2.08-17.06-5.17-26.86-9.85
					c-8.98-4.28-16.6-9-22.89-13.46c-2.82-28.62-3.72-71.82,9.71-121.24c8.52-31.34,17.62-46.13,35.62-87.23
					c16.39-37.39,30.47-53.12,40.07-61.37c4.51-3.87,12.78-10.31,14.39-20.7c2.14-13.81-8.81-26.09-12.57-30.3
					c-37.15-41.66-125.55-20.76-164.01-69.1C2525.15,1543.86,2514.72,1518.58,2522.78,1501.41z"/>
			</g>
			
				<linearGradient id="SVGID_00000112611086606599202710000005529601436240807074_" gradientUnits="userSpaceOnUse" x1="2199.5728" y1="1658.9222" x2="1550.9034" y2="1317.084" gradientTransform="matrix(1 0 0 1 779.4005 0)">
				<stop  offset="0" style="stop-color:#311944"/>
				<stop  offset="1" style="stop-color:#6B3976"/>
			</linearGradient>
			<path style="fill:url(#SVGID_00000112611086606599202710000005529601436240807074_);" d="M2426.08,1337.56
				c-6.48,7.08,7.74,30.54,36.44,77.17c17.66,28.7,26.5,43.05,32.18,49.25c30.57,33.4,82.14,59.13,134.3,56.23
				c35.79-1.99,41.04-15.75,70.38-10.85c44.26,7.38,31.38-78.65,54.22-31.86c1.36,2.8-9.05,24.58-66.45-15.46
				c-46.96-32.76-59.73-22.88-133.54-68.26c-5.35-3.29-28.02-17.32-59.84-33.11C2456.35,1342.12,2432.53,1330.51,2426.08,1337.56z"
				/>
		</g>
	</g>
</g>
</svg>
